<mxfile host="65bd71144e">
    <diagram id="D4QdQjUYp2uEHy3gX3T5" name="2.1">
        <mxGraphModel dx="2300" dy="1317" grid="0" gridSize="10" guides="1" tooltips="1" connect="1" arrows="1" fold="1" page="0" pageScale="1" pageWidth="850" pageHeight="1100" background="#ffffff" math="0" shadow="1">
            <root>
                <mxCell id="0"/>
                <mxCell id="1" parent="0"/>
                <mxCell id="ylemCj7u5r1lWfcAkgnr-129" value="" style="whiteSpace=wrap;strokeColor=#A50040;strokeWidth=4;perimeterSpacing=5;shadow=1;glass=1;html=1;labelBorderColor=none;labelBackgroundColor=none;align=center;fontSize=17;fontColor=#ffffff;fontStyle=1;fillColor=none;" parent="1" vertex="1">
                    <mxGeometry x="300" y="130" width="250" height="640" as="geometry"/>
                </mxCell>
                <mxCell id="ylemCj7u5r1lWfcAkgnr-130" value="" style="edgeStyle=none;endArrow=none;verticalAlign=bottom;strokeColor=#001DBC;strokeWidth=4;entryX=1;entryY=0.5;entryDx=0;entryDy=0;exitX=0;exitY=0.5;exitDx=0;exitDy=0;exitPerimeter=0;shadow=1;html=1;labelBorderColor=none;labelBackgroundColor=none;align=center;fontSize=17;fontColor=#0000FF;fontStyle=1;fillColor=#0050ef;" parent="1" source="ylemCj7u5r1lWfcAkgnr-188" target="ylemCj7u5r1lWfcAkgnr-181" edge="1">
                    <mxGeometry width="160" relative="1" as="geometry">
                        <mxPoint x="640" y="190" as="sourcePoint"/>
                        <mxPoint x="529.0500000000002" y="267.98" as="targetPoint"/>
                        <Array as="points">
                            <mxPoint x="730" y="470"/>
                            <mxPoint x="650" y="470"/>
                        </Array>
                    </mxGeometry>
                </mxCell>
                <mxCell id="ylemCj7u5r1lWfcAkgnr-131" value="" style="edgeStyle=none;endArrow=none;verticalAlign=bottom;strokeColor=#001DBC;strokeWidth=4;entryX=1;entryY=0.5;entryDx=0;entryDy=0;exitX=0;exitY=0.5;exitDx=0;exitDy=0;exitPerimeter=0;shadow=1;html=1;labelBorderColor=none;labelBackgroundColor=none;align=center;fontSize=17;fontColor=#0000FF;fontStyle=1;fillColor=#0050ef;" parent="1" source="ylemCj7u5r1lWfcAkgnr-188" target="ylemCj7u5r1lWfcAkgnr-180" edge="1">
                    <mxGeometry width="160" relative="1" as="geometry">
                        <mxPoint x="647.5" y="485" as="sourcePoint"/>
                        <mxPoint x="502.175144212722" y="284.74873734152925" as="targetPoint"/>
                        <Array as="points">
                            <mxPoint x="730" y="470"/>
                            <mxPoint x="650" y="470"/>
                        </Array>
                    </mxGeometry>
                </mxCell>
                <mxCell id="ylemCj7u5r1lWfcAkgnr-132" value="" style="edgeStyle=none;endArrow=none;verticalAlign=bottom;strokeColor=#006EAF;strokeWidth=4;exitX=0;exitY=0.5;exitDx=0;exitDy=0;exitPerimeter=0;shadow=1;html=1;labelBorderColor=none;labelBackgroundColor=none;align=center;fontSize=17;fontColor=#0000FF;fontStyle=1;fillColor=#1ba1e2;" parent="1" source="ylemCj7u5r1lWfcAkgnr-189" edge="1">
                    <mxGeometry width="160" relative="1" as="geometry">
                        <mxPoint x="647.5" y="510" as="sourcePoint"/>
                        <mxPoint x="509" y="355" as="targetPoint"/>
                        <Array as="points">
                            <mxPoint x="770" y="378"/>
                            <mxPoint x="650" y="378"/>
                        </Array>
                    </mxGeometry>
                </mxCell>
                <mxCell id="ylemCj7u5r1lWfcAkgnr-133" value="" style="edgeStyle=none;endArrow=none;verticalAlign=bottom;strokeColor=#006EAF;strokeWidth=4;shadow=1;html=1;labelBorderColor=none;labelBackgroundColor=none;align=center;fontSize=17;fontColor=#0000FF;fontStyle=1;fillColor=#1ba1e2;entryX=0;entryY=0.5;entryDx=0;entryDy=0;" parent="1" target="ylemCj7u5r1lWfcAkgnr-193" edge="1">
                    <mxGeometry width="160" relative="1" as="geometry">
                        <mxPoint x="510" y="547.5" as="sourcePoint"/>
                        <mxPoint x="690" y="566" as="targetPoint"/>
                        <Array as="points"/>
                    </mxGeometry>
                </mxCell>
                <mxCell id="ylemCj7u5r1lWfcAkgnr-134" value="" style="edgeStyle=none;endArrow=none;verticalAlign=bottom;strokeColor=#A50040;strokeWidth=4;entryX=1;entryY=0.5;entryDx=0;entryDy=0;exitX=0.001;exitY=0.577;exitDx=0;exitDy=0;exitPerimeter=0;shadow=1;html=1;labelBorderColor=none;labelBackgroundColor=none;align=center;fontSize=17;fontColor=#0000FF;fontStyle=1;fillColor=#d80073;" parent="1" source="ylemCj7u5r1lWfcAkgnr-190" target="ylemCj7u5r1lWfcAkgnr-182" edge="1">
                    <mxGeometry width="160" relative="1" as="geometry">
                        <mxPoint x="730" y="290" as="sourcePoint"/>
                        <mxPoint x="530" y="202.5" as="targetPoint"/>
                        <Array as="points">
                            <mxPoint x="650" y="289"/>
                        </Array>
                    </mxGeometry>
                </mxCell>
                <mxCell id="ylemCj7u5r1lWfcAkgnr-135" value="" style="edgeStyle=none;endArrow=none;verticalAlign=bottom;strokeColor=#A50040;strokeWidth=4;entryX=1;entryY=0.5;entryDx=0;entryDy=0;exitX=-0.008;exitY=0.593;exitDx=0;exitDy=0;exitPerimeter=0;shadow=1;html=1;labelBorderColor=none;labelBackgroundColor=none;align=center;fontSize=17;fontColor=#0000FF;fontStyle=1;fillColor=#d80073;" parent="1" source="ylemCj7u5r1lWfcAkgnr-190" target="ylemCj7u5r1lWfcAkgnr-177" edge="1">
                    <mxGeometry width="160" relative="1" as="geometry">
                        <mxPoint x="730" y="290" as="sourcePoint"/>
                        <mxPoint x="530" y="560" as="targetPoint"/>
                        <Array as="points">
                            <mxPoint x="650" y="290"/>
                        </Array>
                    </mxGeometry>
                </mxCell>
                <mxCell id="ylemCj7u5r1lWfcAkgnr-136" value="" style="edgeStyle=none;endArrow=none;verticalAlign=bottom;strokeColor=#A50040;strokeWidth=4;entryX=0;entryY=0.5;entryDx=0;entryDy=0;exitX=1;exitY=0.5;exitDx=0;exitDy=0;shadow=1;html=1;labelBorderColor=none;labelBackgroundColor=none;align=center;fontSize=17;fontColor=#0000FF;fontStyle=1;fillColor=#d80073;" parent="1" source="ylemCj7u5r1lWfcAkgnr-176" target="ylemCj7u5r1lWfcAkgnr-187" edge="1">
                    <mxGeometry width="160" relative="1" as="geometry">
                        <mxPoint x="520" y="617.5" as="sourcePoint"/>
                        <mxPoint x="730" y="775" as="targetPoint"/>
                        <Array as="points">
                            <mxPoint x="650" y="635"/>
                        </Array>
                    </mxGeometry>
                </mxCell>
                <mxCell id="ylemCj7u5r1lWfcAkgnr-137" value="" style="edgeStyle=none;endArrow=none;verticalAlign=bottom;strokeColor=#B20000;strokeWidth=4;entryX=0;entryY=0.5;entryDx=0;entryDy=0;exitX=1;exitY=0.5;exitDx=0;exitDy=0;shadow=1;html=1;labelBorderColor=none;labelBackgroundColor=none;align=center;fontSize=17;fontColor=#0000FF;fontStyle=1;fillColor=#e51400;" parent="1" source="ylemCj7u5r1lWfcAkgnr-173" target="ylemCj7u5r1lWfcAkgnr-186" edge="1">
                    <mxGeometry width="160" relative="1" as="geometry">
                        <mxPoint x="510" y="470" as="sourcePoint"/>
                        <mxPoint x="846.9899999999998" y="502.99" as="targetPoint"/>
                        <Array as="points">
                            <mxPoint x="650" y="695"/>
                        </Array>
                    </mxGeometry>
                </mxCell>
                <mxCell id="ylemCj7u5r1lWfcAkgnr-138" value="" style="edgeStyle=none;endArrow=none;verticalAlign=bottom;strokeColor=#B20000;strokeWidth=4;entryX=1;entryY=0.5;entryDx=0;entryDy=0;exitX=0;exitY=0.5;exitDx=0;exitDy=0;shadow=1;html=1;labelBorderColor=none;labelBackgroundColor=none;align=center;fontSize=17;fontColor=#0000FF;fontStyle=1;fillColor=#e51400;" parent="1" source="ylemCj7u5r1lWfcAkgnr-191" target="ylemCj7u5r1lWfcAkgnr-182" edge="1">
                    <mxGeometry width="160" relative="1" as="geometry">
                        <mxPoint x="640" y="190" as="sourcePoint"/>
                        <mxPoint x="521.0700000000002" y="176.04999999999995" as="targetPoint"/>
                        <Array as="points">
                            <mxPoint x="650" y="205"/>
                        </Array>
                    </mxGeometry>
                </mxCell>
                <mxCell id="ylemCj7u5r1lWfcAkgnr-139" value="" style="edgeStyle=none;endArrow=none;verticalAlign=bottom;strokeColor=#B20000;strokeWidth=4;exitX=0;exitY=0.5;exitDx=0;exitDy=0;entryX=1;entryY=0.5;entryDx=0;entryDy=0;shadow=1;html=1;labelBorderColor=none;labelBackgroundColor=none;align=center;fontSize=17;fontColor=#0000FF;fontStyle=1;fillColor=#e51400;" parent="1" source="ylemCj7u5r1lWfcAkgnr-191" target="ylemCj7u5r1lWfcAkgnr-179" edge="1">
                    <mxGeometry width="160" relative="1" as="geometry">
                        <mxPoint x="640" y="185" as="sourcePoint"/>
                        <mxPoint x="523" y="400" as="targetPoint"/>
                        <Array as="points">
                            <mxPoint x="650" y="205"/>
                        </Array>
                    </mxGeometry>
                </mxCell>
                <mxCell id="ylemCj7u5r1lWfcAkgnr-140" value="" style="edgeStyle=none;endArrow=none;verticalAlign=bottom;strokeColor=#B20000;strokeWidth=4;exitX=0;exitY=0.5;exitDx=0;exitDy=0;entryX=1;entryY=0.5;entryDx=0;entryDy=0;shadow=1;html=1;labelBorderColor=none;labelBackgroundColor=none;align=center;fontSize=17;fontColor=#0000FF;fontStyle=1;fillColor=#e51400;" parent="1" source="ylemCj7u5r1lWfcAkgnr-191" target="ylemCj7u5r1lWfcAkgnr-173" edge="1">
                    <mxGeometry width="160" relative="1" as="geometry">
                        <mxPoint x="730" y="165" as="sourcePoint"/>
                        <mxPoint x="520" y="482.5" as="targetPoint"/>
                        <Array as="points">
                            <mxPoint x="650" y="205"/>
                        </Array>
                    </mxGeometry>
                </mxCell>
                <mxCell id="ylemCj7u5r1lWfcAkgnr-141" value="" style="edgeStyle=none;endArrow=none;verticalAlign=bottom;strokeColor=#B20000;strokeWidth=4;entryX=1;entryY=0.5;entryDx=0;entryDy=0;exitX=0;exitY=0.5;exitDx=0;exitDy=0;shadow=1;html=1;labelBorderColor=none;labelBackgroundColor=none;align=center;fontSize=17;fontColor=#0000FF;fontStyle=1;fillColor=#e51400;" parent="1" source="ylemCj7u5r1lWfcAkgnr-191" target="ylemCj7u5r1lWfcAkgnr-174" edge="1">
                    <mxGeometry width="160" relative="1" as="geometry">
                        <mxPoint x="730" y="165" as="sourcePoint"/>
                        <mxPoint x="520" y="550" as="targetPoint"/>
                        <Array as="points">
                            <mxPoint x="650" y="205"/>
                        </Array>
                    </mxGeometry>
                </mxCell>
                <mxCell id="ylemCj7u5r1lWfcAkgnr-142" value="" style="edgeStyle=none;endArrow=none;verticalAlign=bottom;strokeColor=#B20000;strokeWidth=4;entryX=1;entryY=0.5;entryDx=0;entryDy=0;exitX=0;exitY=0.5;exitDx=0;exitDy=0;shadow=1;html=1;labelBorderColor=none;labelBackgroundColor=none;align=center;fontSize=17;fontColor=#0000FF;fontStyle=1;fillColor=#e51400;" parent="1" source="ylemCj7u5r1lWfcAkgnr-191" target="ylemCj7u5r1lWfcAkgnr-177" edge="1">
                    <mxGeometry width="160" relative="1" as="geometry">
                        <mxPoint x="730" y="225" as="sourcePoint"/>
                        <mxPoint x="520" y="550" as="targetPoint"/>
                        <Array as="points">
                            <mxPoint x="650" y="205"/>
                        </Array>
                    </mxGeometry>
                </mxCell>
                <mxCell id="ylemCj7u5r1lWfcAkgnr-143" value="" style="edgeStyle=none;endArrow=none;verticalAlign=bottom;strokeColor=#6F0000;strokeWidth=4;exitX=1;exitY=0.5;exitDx=0;exitDy=0;entryX=0.003;entryY=0.59;entryDx=0;entryDy=0;entryPerimeter=0;shadow=1;html=1;labelBorderColor=none;labelBackgroundColor=none;align=center;fontSize=17;fontColor=#0000FF;fontStyle=1;fillColor=#a20025;" parent="1" source="ylemCj7u5r1lWfcAkgnr-177" target="ylemCj7u5r1lWfcAkgnr-192" edge="1">
                    <mxGeometry width="160" relative="1" as="geometry">
                        <mxPoint x="520" y="677.5" as="sourcePoint"/>
                        <mxPoint x="720" y="160" as="targetPoint"/>
                        <Array as="points">
                            <mxPoint x="650" y="150"/>
                        </Array>
                    </mxGeometry>
                </mxCell>
                <mxCell id="ylemCj7u5r1lWfcAkgnr-144" value="" style="edgeStyle=none;endArrow=none;verticalAlign=bottom;strokeColor=#6F0000;strokeWidth=4;entryX=1;entryY=0.5;entryDx=0;entryDy=0;exitX=0;exitY=0.5;exitDx=0;exitDy=0;shadow=1;html=1;labelBorderColor=none;labelBackgroundColor=none;align=center;fontSize=17;fontColor=#0000FF;fontStyle=1;fillColor=#a20025;" parent="1" source="ylemCj7u5r1lWfcAkgnr-192" target="ylemCj7u5r1lWfcAkgnr-173" edge="1">
                    <mxGeometry width="160" relative="1" as="geometry">
                        <mxPoint x="720" y="150" as="sourcePoint"/>
                        <mxPoint x="508.44000000000005" y="406" as="targetPoint"/>
                        <Array as="points">
                            <mxPoint x="650" y="145"/>
                        </Array>
                    </mxGeometry>
                </mxCell>
                <mxCell id="ylemCj7u5r1lWfcAkgnr-145" value="" style="edgeStyle=none;endArrow=none;verticalAlign=bottom;strokeColor=#6F0000;strokeWidth=4;entryX=1;entryY=0.5;entryDx=0;entryDy=0;exitX=0;exitY=0.5;exitDx=0;exitDy=0;shadow=1;html=1;labelBorderColor=none;labelBackgroundColor=none;align=center;fontSize=17;fontColor=#0000FF;fontStyle=1;fillColor=#a20025;" parent="1" source="ylemCj7u5r1lWfcAkgnr-192" target="ylemCj7u5r1lWfcAkgnr-174" edge="1">
                    <mxGeometry width="160" relative="1" as="geometry">
                        <mxPoint x="720" y="155" as="sourcePoint"/>
                        <mxPoint x="518.44" y="416" as="targetPoint"/>
                        <Array as="points">
                            <mxPoint x="650" y="145"/>
                        </Array>
                    </mxGeometry>
                </mxCell>
                <mxCell id="ylemCj7u5r1lWfcAkgnr-146" value="" style="edgeStyle=none;endArrow=none;verticalAlign=bottom;strokeColor=#6F0000;strokeWidth=4;exitX=1;exitY=0.5;exitDx=0;exitDy=0;entryX=0;entryY=0.5;entryDx=0;entryDy=0;shadow=1;html=1;labelBorderColor=none;labelBackgroundColor=none;align=center;fontSize=17;fontColor=#0000FF;fontStyle=1;fillColor=#a20025;" parent="1" source="ylemCj7u5r1lWfcAkgnr-175" target="ylemCj7u5r1lWfcAkgnr-192" edge="1">
                    <mxGeometry width="160" relative="1" as="geometry">
                        <mxPoint x="520" y="677.5" as="sourcePoint"/>
                        <mxPoint x="720" y="150" as="targetPoint"/>
                        <Array as="points">
                            <mxPoint x="650" y="145"/>
                        </Array>
                    </mxGeometry>
                </mxCell>
                <mxCell id="ylemCj7u5r1lWfcAkgnr-147" value="" style="edgeStyle=none;endArrow=none;verticalAlign=bottom;strokeColor=#6F0000;strokeWidth=4;exitX=1;exitY=0.5;exitDx=0;exitDy=0;entryX=0;entryY=0.5;entryDx=0;entryDy=0;shadow=1;html=1;labelBorderColor=none;labelBackgroundColor=none;align=center;fontSize=17;fontColor=#0000FF;fontStyle=1;fillColor=#a20025;" parent="1" source="ylemCj7u5r1lWfcAkgnr-176" target="ylemCj7u5r1lWfcAkgnr-192" edge="1">
                    <mxGeometry width="160" relative="1" as="geometry">
                        <mxPoint x="520" y="677.5" as="sourcePoint"/>
                        <mxPoint x="720" y="150" as="targetPoint"/>
                        <Array as="points">
                            <mxPoint x="650" y="145"/>
                        </Array>
                    </mxGeometry>
                </mxCell>
                <mxCell id="ylemCj7u5r1lWfcAkgnr-148" value="" style="edgeStyle=none;endArrow=none;verticalAlign=bottom;strokeColor=#6F0000;strokeWidth=4;exitX=1;exitY=0.5;exitDx=0;exitDy=0;entryX=0.003;entryY=0.59;entryDx=0;entryDy=0;entryPerimeter=0;shadow=1;html=1;labelBorderColor=none;labelBackgroundColor=none;align=center;fontSize=17;fontColor=#0000FF;fontStyle=1;fillColor=#a20025;" parent="1" edge="1">
                    <mxGeometry width="160" relative="1" as="geometry">
                        <mxPoint x="510.0000000000009" y="726.75" as="sourcePoint"/>
                        <mxPoint x="730.3599999999999" y="148.75" as="targetPoint"/>
                        <Array as="points">
                            <mxPoint x="650" y="149.25"/>
                        </Array>
                    </mxGeometry>
                </mxCell>
                <mxCell id="ylemCj7u5r1lWfcAkgnr-149" value="" style="edgeStyle=none;endArrow=none;verticalAlign=bottom;strokeColor=#6F0000;strokeWidth=4;entryX=1;entryY=0.5;entryDx=0;entryDy=0;exitX=0;exitY=0.5;exitDx=0;exitDy=0;shadow=1;html=1;labelBorderColor=none;labelBackgroundColor=none;align=center;fontSize=17;fontColor=#0000FF;fontStyle=1;fillColor=#a20025;" parent="1" edge="1">
                    <mxGeometry width="160" relative="1" as="geometry">
                        <mxPoint x="730" y="144.25" as="sourcePoint"/>
                        <mxPoint x="509.99999999999864" y="169.25" as="targetPoint"/>
                        <Array as="points">
                            <mxPoint x="650" y="144.25"/>
                        </Array>
                    </mxGeometry>
                </mxCell>
                <mxCell id="ylemCj7u5r1lWfcAkgnr-150" value="" style="edgeStyle=none;endArrow=none;verticalAlign=bottom;strokeColor=#6F0000;strokeWidth=4;entryX=1;entryY=0.5;entryDx=0;entryDy=0;exitX=0.001;exitY=0.594;exitDx=0;exitDy=0;exitPerimeter=0;shadow=1;html=1;labelBorderColor=none;labelBackgroundColor=none;align=center;fontSize=17;fontColor=#0000FF;fontStyle=1;fillColor=#a20025;" parent="1" edge="1">
                    <mxGeometry width="160" relative="1" as="geometry">
                        <mxPoint x="730.1200000000001" y="148.94999999999982" as="sourcePoint"/>
                        <mxPoint x="510.0000000000009" y="234.25" as="targetPoint"/>
                        <Array as="points">
                            <mxPoint x="650" y="149.25"/>
                        </Array>
                    </mxGeometry>
                </mxCell>
                <mxCell id="ylemCj7u5r1lWfcAkgnr-151" value="" style="edgeStyle=none;endArrow=none;verticalAlign=bottom;strokeColor=#6F0000;strokeWidth=4;entryX=1;entryY=0.5;entryDx=0;entryDy=0;exitX=0;exitY=0.5;exitDx=0;exitDy=0;shadow=1;html=1;labelBorderColor=none;labelBackgroundColor=none;align=center;fontSize=17;fontColor=#0000FF;fontStyle=1;fillColor=#a20025;" parent="1" edge="1">
                    <mxGeometry width="160" relative="1" as="geometry">
                        <mxPoint x="730" y="144.25" as="sourcePoint"/>
                        <mxPoint x="510.0000000000016" y="294.25" as="targetPoint"/>
                        <Array as="points">
                            <mxPoint x="650" y="144.25"/>
                        </Array>
                    </mxGeometry>
                </mxCell>
                <mxCell id="ylemCj7u5r1lWfcAkgnr-152" value="" style="edgeStyle=none;endArrow=none;verticalAlign=bottom;strokeColor=#6F0000;strokeWidth=4;entryX=1;entryY=0.5;entryDx=0;entryDy=0;exitX=0;exitY=0.5;exitDx=0;exitDy=0;shadow=1;html=1;labelBorderColor=none;labelBackgroundColor=none;align=center;fontSize=17;fontColor=#0000FF;fontStyle=1;fillColor=#a20025;" parent="1" edge="1">
                    <mxGeometry width="160" relative="1" as="geometry">
                        <mxPoint x="730" y="144.25" as="sourcePoint"/>
                        <mxPoint x="510.0000000000016" y="354.25" as="targetPoint"/>
                        <Array as="points">
                            <mxPoint x="650" y="144.25"/>
                        </Array>
                    </mxGeometry>
                </mxCell>
                <mxCell id="ylemCj7u5r1lWfcAkgnr-153" value="" style="edgeStyle=none;endArrow=none;verticalAlign=bottom;strokeColor=#6F0000;strokeWidth=4;entryX=1;entryY=0.5;entryDx=0;entryDy=0;exitX=0;exitY=0.5;exitDx=0;exitDy=0;shadow=1;html=1;labelBorderColor=none;labelBackgroundColor=none;align=center;fontSize=17;fontColor=#0000FF;fontStyle=1;fillColor=#a20025;" parent="1" edge="1">
                    <mxGeometry width="160" relative="1" as="geometry">
                        <mxPoint x="730" y="144.25" as="sourcePoint"/>
                        <mxPoint x="510.0000000000009" y="411.75" as="targetPoint"/>
                        <Array as="points">
                            <mxPoint x="650" y="144.25"/>
                        </Array>
                    </mxGeometry>
                </mxCell>
                <mxCell id="ylemCj7u5r1lWfcAkgnr-154" value="" style="edgeStyle=none;endArrow=none;verticalAlign=bottom;strokeColor=#6F0000;strokeWidth=4;entryX=0;entryY=0.5;entryDx=0;entryDy=0;exitX=1;exitY=0.5;exitDx=0;exitDy=0;shadow=1;html=1;labelBorderColor=none;labelBackgroundColor=none;align=center;fontSize=17;fontColor=#0000FF;fontStyle=1;fillColor=#a20025;" parent="1" source="ylemCj7u5r1lWfcAkgnr-175" target="ylemCj7u5r1lWfcAkgnr-185" edge="1">
                    <mxGeometry width="160" relative="1" as="geometry">
                        <mxPoint x="520" y="550" as="sourcePoint"/>
                        <mxPoint x="737.5" y="580" as="targetPoint"/>
                        <Array as="points">
                            <mxPoint x="650" y="755"/>
                        </Array>
                    </mxGeometry>
                </mxCell>
                <mxCell id="ylemCj7u5r1lWfcAkgnr-155" value="" style="edgeStyle=none;endArrow=none;verticalAlign=bottom;strokeColor=#FF6392;strokeWidth=4;entryX=0;entryY=0.5;entryDx=0;entryDy=0;exitX=0.99;exitY=0.667;exitDx=0;exitDy=0;exitPerimeter=0;shadow=1;html=1;labelBorderColor=none;labelBackgroundColor=none;align=center;fontColor=#0000FF;" parent="1" source="ylemCj7u5r1lWfcAkgnr-183" target="ylemCj7u5r1lWfcAkgnr-182" edge="1">
                    <mxGeometry width="160" relative="1" as="geometry">
                        <mxPoint x="160" y="280" as="sourcePoint"/>
                        <mxPoint x="320" y="280" as="targetPoint"/>
                        <Array as="points">
                            <mxPoint x="250" y="170"/>
                        </Array>
                    </mxGeometry>
                </mxCell>
                <mxCell id="ylemCj7u5r1lWfcAkgnr-156" value="" style="edgeStyle=none;endArrow=none;verticalAlign=bottom;strokeColor=#6F0000;strokeWidth=4;entryX=1;entryY=0.5;entryDx=0;entryDy=0;exitX=0;exitY=0.5;exitDx=0;exitDy=0;shadow=1;html=1;labelBorderColor=none;labelBackgroundColor=none;align=center;fontSize=17;fontColor=#0000FF;fontStyle=1;fillColor=#a20025;" parent="1" source="ylemCj7u5r1lWfcAkgnr-192" target="ylemCj7u5r1lWfcAkgnr-182" edge="1">
                    <mxGeometry width="160" relative="1" as="geometry">
                        <mxPoint x="720" y="150" as="sourcePoint"/>
                        <mxPoint x="340" y="202.5" as="targetPoint"/>
                        <Array as="points">
                            <mxPoint x="650" y="145"/>
                        </Array>
                    </mxGeometry>
                </mxCell>
                <mxCell id="ylemCj7u5r1lWfcAkgnr-157" value="" style="edgeStyle=none;endArrow=none;verticalAlign=bottom;strokeColor=#FF6392;strokeWidth=4;entryX=0;entryY=0.5;entryDx=0;entryDy=0;exitX=0.99;exitY=0.667;exitDx=0;exitDy=0;exitPerimeter=0;shadow=1;html=1;labelBorderColor=none;labelBackgroundColor=none;align=center;fontColor=#0000FF;" parent="1" source="ylemCj7u5r1lWfcAkgnr-183" target="ylemCj7u5r1lWfcAkgnr-181" edge="1">
                    <mxGeometry width="160" relative="1" as="geometry">
                        <mxPoint x="145" y="233" as="sourcePoint"/>
                        <mxPoint x="340" y="182.5" as="targetPoint"/>
                        <Array as="points">
                            <mxPoint x="250" y="235"/>
                        </Array>
                    </mxGeometry>
                </mxCell>
                <mxCell id="ylemCj7u5r1lWfcAkgnr-158" value="" style="edgeStyle=none;endArrow=none;verticalAlign=bottom;strokeColor=#6F0000;strokeWidth=4;entryX=1;entryY=0.5;entryDx=0;entryDy=0;exitX=0.001;exitY=0.594;exitDx=0;exitDy=0;exitPerimeter=0;shadow=1;html=1;labelBorderColor=none;labelBackgroundColor=none;align=center;fontSize=17;fontColor=#0000FF;fontStyle=1;fillColor=#a20025;" parent="1" source="ylemCj7u5r1lWfcAkgnr-192" target="ylemCj7u5r1lWfcAkgnr-181" edge="1">
                    <mxGeometry width="160" relative="1" as="geometry">
                        <mxPoint x="720" y="155" as="sourcePoint"/>
                        <mxPoint x="500" y="230" as="targetPoint"/>
                        <Array as="points">
                            <mxPoint x="650" y="150"/>
                        </Array>
                    </mxGeometry>
                </mxCell>
                <mxCell id="ylemCj7u5r1lWfcAkgnr-159" value="" style="edgeStyle=none;endArrow=none;verticalAlign=bottom;strokeColor=#FF6392;strokeWidth=4;entryX=0.1;entryY=0.497;entryDx=0;entryDy=0;entryPerimeter=0;shadow=1;html=1;labelBorderColor=none;labelBackgroundColor=none;align=center;fontSize=17;fontColor=#0000FF;fontStyle=1;exitX=1;exitY=0.5;exitDx=0;exitDy=0;exitPerimeter=0;" parent="1" source="ylemCj7u5r1lWfcAkgnr-190" target="ylemCj7u5r1lWfcAkgnr-184" edge="1">
                    <mxGeometry width="160" relative="1" as="geometry">
                        <mxPoint x="943" y="300" as="sourcePoint"/>
                        <mxPoint x="702.175144212722" y="284.74873734152925" as="targetPoint"/>
                        <Array as="points">
                            <mxPoint x="890" y="283"/>
                        </Array>
                    </mxGeometry>
                </mxCell>
                <mxCell id="ylemCj7u5r1lWfcAkgnr-160" value="" style="edgeStyle=none;endArrow=none;verticalAlign=bottom;strokeColor=#FF6392;strokeWidth=4;entryX=0.081;entryY=0.492;entryDx=0;entryDy=0;entryPerimeter=0;shadow=1;html=1;labelBorderColor=none;labelBackgroundColor=none;align=center;fontSize=17;fontColor=#0000FF;fontStyle=1;exitX=1;exitY=0.5;exitDx=0;exitDy=0;exitPerimeter=0;" parent="1" source="ylemCj7u5r1lWfcAkgnr-189" target="ylemCj7u5r1lWfcAkgnr-184" edge="1">
                    <mxGeometry width="160" relative="1" as="geometry">
                        <mxPoint x="943" y="390" as="sourcePoint"/>
                        <mxPoint x="1043" y="372.01" as="targetPoint"/>
                        <Array as="points">
                            <mxPoint x="890" y="378"/>
                        </Array>
                    </mxGeometry>
                </mxCell>
                <mxCell id="ylemCj7u5r1lWfcAkgnr-161" value="" style="edgeStyle=none;endArrow=none;verticalAlign=bottom;strokeColor=#FF6392;strokeWidth=4;exitX=1;exitY=0.5;exitDx=0;exitDy=0;exitPerimeter=0;entryX=0.075;entryY=0.479;entryDx=0;entryDy=0;entryPerimeter=0;shadow=1;html=1;labelBorderColor=none;labelBackgroundColor=none;align=center;fontSize=17;fontColor=#0000FF;fontStyle=1" parent="1" source="ylemCj7u5r1lWfcAkgnr-188" target="ylemCj7u5r1lWfcAkgnr-184" edge="1">
                    <mxGeometry width="160" relative="1" as="geometry">
                        <mxPoint x="962.5" y="318.75" as="sourcePoint"/>
                        <mxPoint x="1053" y="382.01" as="targetPoint"/>
                        <Array as="points">
                            <mxPoint x="890" y="470"/>
                        </Array>
                    </mxGeometry>
                </mxCell>
                <mxCell id="ylemCj7u5r1lWfcAkgnr-162" value="" style="edgeStyle=none;endArrow=none;verticalAlign=bottom;strokeColor=#FF6392;strokeWidth=4;exitX=1;exitY=0.5;exitDx=0;exitDy=0;exitPerimeter=0;shadow=1;html=1;labelBorderColor=none;labelBackgroundColor=none;align=center;fontSize=17;fontColor=#0000FF;fontStyle=1;entryX=0.075;entryY=0.496;entryDx=0;entryDy=0;entryPerimeter=0;" parent="1" source="ylemCj7u5r1lWfcAkgnr-195" target="ylemCj7u5r1lWfcAkgnr-184" edge="1">
                    <mxGeometry width="160" relative="1" as="geometry">
                        <mxPoint x="972.5" y="328.75" as="sourcePoint"/>
                        <mxPoint x="970" y="450" as="targetPoint"/>
                        <Array as="points"/>
                    </mxGeometry>
                </mxCell>
                <mxCell id="ylemCj7u5r1lWfcAkgnr-163" value="" style="edgeStyle=none;endArrow=none;verticalAlign=bottom;strokeColor=#FF6392;strokeWidth=4;entryX=0;entryY=0.5;entryDx=0;entryDy=0;exitX=0.988;exitY=0.683;exitDx=0;exitDy=0;exitPerimeter=0;shadow=1;html=1;labelBorderColor=none;labelBackgroundColor=none;align=center;fontColor=#0000FF;" parent="1" source="ylemCj7u5r1lWfcAkgnr-183" target="ylemCj7u5r1lWfcAkgnr-180" edge="1">
                    <mxGeometry width="160" relative="1" as="geometry">
                        <mxPoint x="140" y="420" as="sourcePoint"/>
                        <mxPoint x="348.92999999999984" y="246.98000000000002" as="targetPoint"/>
                        <Array as="points">
                            <mxPoint x="250" y="295"/>
                        </Array>
                    </mxGeometry>
                </mxCell>
                <mxCell id="ylemCj7u5r1lWfcAkgnr-164" value="" style="edgeStyle=none;endArrow=none;verticalAlign=bottom;strokeColor=#6F0000;strokeWidth=4;entryX=1;entryY=0.5;entryDx=0;entryDy=0;exitX=0;exitY=0.5;exitDx=0;exitDy=0;shadow=1;html=1;labelBorderColor=none;labelBackgroundColor=none;align=center;fontSize=17;fontColor=#0000FF;fontStyle=1;fillColor=#a20025;" parent="1" source="ylemCj7u5r1lWfcAkgnr-192" target="ylemCj7u5r1lWfcAkgnr-180" edge="1">
                    <mxGeometry width="160" relative="1" as="geometry">
                        <mxPoint x="720" y="153" as="sourcePoint"/>
                        <mxPoint x="512.175144212722" y="294.74873734152925" as="targetPoint"/>
                        <Array as="points">
                            <mxPoint x="650" y="145"/>
                        </Array>
                    </mxGeometry>
                </mxCell>
                <mxCell id="ylemCj7u5r1lWfcAkgnr-165" value="" style="edgeStyle=none;endArrow=none;verticalAlign=bottom;strokeColor=#FF6392;strokeWidth=4;entryX=0;entryY=0.5;entryDx=0;entryDy=0;exitX=0.979;exitY=0.668;exitDx=0;exitDy=0;exitPerimeter=0;shadow=1;html=1;labelBorderColor=none;labelBackgroundColor=none;align=center;fontColor=#0000FF;" parent="1" source="ylemCj7u5r1lWfcAkgnr-183" target="ylemCj7u5r1lWfcAkgnr-179" edge="1">
                    <mxGeometry width="160" relative="1" as="geometry">
                        <mxPoint x="140" y="420" as="sourcePoint"/>
                        <mxPoint x="340" y="337.5" as="targetPoint"/>
                        <Array as="points">
                            <mxPoint x="250" y="355"/>
                        </Array>
                    </mxGeometry>
                </mxCell>
                <mxCell id="ylemCj7u5r1lWfcAkgnr-166" value="" style="edgeStyle=none;endArrow=none;verticalAlign=bottom;strokeColor=#6F0000;strokeWidth=4;entryX=1;entryY=0.5;entryDx=0;entryDy=0;exitX=0;exitY=0.5;exitDx=0;exitDy=0;shadow=1;html=1;labelBorderColor=none;labelBackgroundColor=none;align=center;fontSize=17;fontColor=#0000FF;fontStyle=1;fillColor=#a20025;" parent="1" source="ylemCj7u5r1lWfcAkgnr-192" target="ylemCj7u5r1lWfcAkgnr-179" edge="1">
                    <mxGeometry width="160" relative="1" as="geometry">
                        <mxPoint x="720" y="150" as="sourcePoint"/>
                        <mxPoint x="529.0500000000002" y="425.9749999999999" as="targetPoint"/>
                        <Array as="points">
                            <mxPoint x="650" y="145"/>
                        </Array>
                    </mxGeometry>
                </mxCell>
                <mxCell id="ylemCj7u5r1lWfcAkgnr-167" value="" style="edgeStyle=none;endArrow=none;verticalAlign=bottom;strokeColor=#6F0000;strokeWidth=4;entryX=1;entryY=0.5;entryDx=0;entryDy=0;exitX=0;exitY=0.5;exitDx=0;exitDy=0;shadow=1;html=1;labelBorderColor=none;labelBackgroundColor=none;align=center;fontSize=17;fontColor=#0000FF;fontStyle=1;fillColor=#a20025;" parent="1" source="ylemCj7u5r1lWfcAkgnr-192" target="ylemCj7u5r1lWfcAkgnr-178" edge="1">
                    <mxGeometry width="160" relative="1" as="geometry">
                        <mxPoint x="720" y="155" as="sourcePoint"/>
                        <mxPoint x="529.0500000000002" y="425.9749999999999" as="targetPoint"/>
                        <Array as="points">
                            <mxPoint x="650" y="145"/>
                        </Array>
                    </mxGeometry>
                </mxCell>
                <mxCell id="ylemCj7u5r1lWfcAkgnr-168" value="" style="edgeStyle=none;endArrow=none;verticalAlign=bottom;strokeColor=#FF6392;strokeWidth=4;entryX=0;entryY=0.5;entryDx=0;entryDy=0;exitX=0.99;exitY=0.667;exitDx=0;exitDy=0;exitPerimeter=0;shadow=1;html=1;labelBorderColor=none;labelBackgroundColor=none;align=center;fontColor=#0000FF;" parent="1" source="ylemCj7u5r1lWfcAkgnr-183" target="ylemCj7u5r1lWfcAkgnr-178" edge="1">
                    <mxGeometry width="160" relative="1" as="geometry">
                        <mxPoint x="140" y="413" as="sourcePoint"/>
                        <mxPoint x="345.38532287044154" y="405.05351706533907" as="targetPoint"/>
                        <Array as="points">
                            <mxPoint x="250" y="413"/>
                        </Array>
                    </mxGeometry>
                </mxCell>
                <mxCell id="ylemCj7u5r1lWfcAkgnr-169" value="" style="edgeStyle=none;endArrow=none;verticalAlign=bottom;strokeColor=#FF6392;strokeWidth=4;entryX=0;entryY=0.5;entryDx=0;entryDy=0;exitX=0.984;exitY=0.674;exitDx=0;exitDy=0;exitPerimeter=0;shadow=1;html=1;labelBorderColor=none;labelBackgroundColor=none;align=center;fontColor=#0000FF;" parent="1" source="ylemCj7u5r1lWfcAkgnr-183" target="ylemCj7u5r1lWfcAkgnr-173" edge="1">
                    <mxGeometry width="160" relative="1" as="geometry">
                        <mxPoint x="140" y="420" as="sourcePoint"/>
                        <mxPoint x="340" y="497.5" as="targetPoint"/>
                        <Array as="points">
                            <mxPoint x="250" y="473"/>
                        </Array>
                    </mxGeometry>
                </mxCell>
                <mxCell id="ylemCj7u5r1lWfcAkgnr-170" value="" style="edgeStyle=none;endArrow=none;verticalAlign=bottom;strokeColor=#FF6392;strokeWidth=4;entryX=0;entryY=0.5;entryDx=0;entryDy=0;shadow=1;html=1;labelBorderColor=none;labelBackgroundColor=none;align=center;fontColor=#0000FF;" parent="1" target="ylemCj7u5r1lWfcAkgnr-174" edge="1">
                    <mxGeometry width="160" relative="1" as="geometry">
                        <mxPoint x="160" y="450" as="sourcePoint"/>
                        <mxPoint x="350" y="482.5" as="targetPoint"/>
                        <Array as="points">
                            <mxPoint x="250" y="540"/>
                        </Array>
                    </mxGeometry>
                </mxCell>
                <mxCell id="ylemCj7u5r1lWfcAkgnr-171" value="" style="edgeStyle=none;endArrow=none;verticalAlign=bottom;strokeColor=#FF6392;strokeWidth=4;entryX=0;entryY=0.5;entryDx=0;entryDy=0;shadow=1;html=1;labelBorderColor=none;labelBackgroundColor=none;align=center;fontColor=#0000FF;" parent="1" target="ylemCj7u5r1lWfcAkgnr-175" edge="1">
                    <mxGeometry width="160" relative="1" as="geometry">
                        <mxPoint x="160" y="450" as="sourcePoint"/>
                        <mxPoint x="350" y="550" as="targetPoint"/>
                        <Array as="points">
                            <mxPoint x="250" y="608"/>
                        </Array>
                    </mxGeometry>
                </mxCell>
                <mxCell id="ylemCj7u5r1lWfcAkgnr-172" value="" style="edgeStyle=none;endArrow=none;verticalAlign=bottom;strokeColor=#FF6392;strokeWidth=4;entryX=0;entryY=0.5;entryDx=0;entryDy=0;shadow=1;html=1;labelBorderColor=none;labelBackgroundColor=none;align=center;fontColor=#0000FF;" parent="1" target="ylemCj7u5r1lWfcAkgnr-176" edge="1">
                    <mxGeometry width="160" relative="1" as="geometry">
                        <mxPoint x="157" y="450" as="sourcePoint"/>
                        <mxPoint x="350" y="617.5" as="targetPoint"/>
                        <Array as="points">
                            <mxPoint x="250" y="668"/>
                        </Array>
                    </mxGeometry>
                </mxCell>
                <mxCell id="ylemCj7u5r1lWfcAkgnr-173" value="&lt;span&gt;Pays With Cash&lt;/span&gt;" style="ellipse;whiteSpace=wrap;fillColor=#FFE45E;shadow=1;strokeColor=#FF6392;strokeWidth=4;html=1;labelBorderColor=none;labelBackgroundColor=none;align=center;fontSize=17;fontColor=#0000FF;fontStyle=1" parent="1" vertex="1">
                    <mxGeometry x="340" y="445" width="170" height="55" as="geometry"/>
                </mxCell>
                <mxCell id="ylemCj7u5r1lWfcAkgnr-174" value="&lt;span&gt;Pays With CreditCard&lt;/span&gt;" style="ellipse;whiteSpace=wrap;fillColor=#FFE45E;shadow=1;strokeColor=#FF6392;strokeWidth=4;html=1;labelBorderColor=none;labelBackgroundColor=none;align=center;fontSize=17;fontColor=#0000FF;fontStyle=1" parent="1" vertex="1">
                    <mxGeometry x="340" y="510" width="170" height="60" as="geometry"/>
                </mxCell>
                <mxCell id="ylemCj7u5r1lWfcAkgnr-175" value="&lt;span&gt;Selcets Paper Recipt&lt;/span&gt;" style="ellipse;whiteSpace=wrap;fillColor=#FFE45E;shadow=1;strokeColor=#FF6392;strokeWidth=4;html=1;labelBorderColor=none;labelBackgroundColor=none;align=center;fontSize=17;fontColor=#0000FF;fontStyle=1" parent="1" vertex="1">
                    <mxGeometry x="340" y="580" width="170" height="55" as="geometry"/>
                </mxCell>
                <mxCell id="ylemCj7u5r1lWfcAkgnr-176" value="&lt;span&gt;Selcets Digital Recipt&lt;/span&gt;" style="ellipse;whiteSpace=wrap;fillColor=#FFE45E;shadow=1;strokeColor=#FF6392;strokeWidth=4;html=1;labelBorderColor=none;labelBackgroundColor=none;align=center;fontSize=17;fontColor=#0000FF;fontStyle=1" parent="1" vertex="1">
                    <mxGeometry x="340" y="640" width="170" height="55" as="geometry"/>
                </mxCell>
                <mxCell id="ylemCj7u5r1lWfcAkgnr-177" value="&lt;span&gt;System Auto Timed Exit&lt;/span&gt;" style="ellipse;whiteSpace=wrap;fillColor=#FFE45E;shadow=1;strokeColor=#FF6392;strokeWidth=4;html=1;labelBorderColor=none;labelBackgroundColor=none;align=center;fontSize=17;fontColor=#0000FF;fontStyle=1" parent="1" vertex="1">
                    <mxGeometry x="340" y="700" width="170" height="55" as="geometry"/>
                </mxCell>
                <mxCell id="ylemCj7u5r1lWfcAkgnr-178" value="&lt;span&gt;Selects Purchase Ticket&amp;nbsp;&lt;/span&gt;" style="ellipse;whiteSpace=wrap;fillColor=#FFE45E;shadow=1;strokeColor=#FF6392;strokeWidth=4;html=1;labelBorderColor=none;labelBackgroundColor=none;align=center;fontSize=17;fontColor=#0000FF;fontStyle=1" parent="1" vertex="1">
                    <mxGeometry x="340" y="385" width="170" height="55" as="geometry"/>
                </mxCell>
                <mxCell id="ylemCj7u5r1lWfcAkgnr-179" value="&lt;span&gt;Selects Media Preview&lt;/span&gt;" style="ellipse;whiteSpace=wrap;fillColor=#FFE45E;shadow=1;strokeColor=#FF6392;strokeWidth=4;html=1;labelBorderColor=none;labelBackgroundColor=none;align=center;fontSize=17;fontColor=#0000FF;fontStyle=1" parent="1" vertex="1">
                    <mxGeometry x="340" y="330" width="170" height="50" as="geometry"/>
                </mxCell>
                <mxCell id="ylemCj7u5r1lWfcAkgnr-180" value="&lt;span&gt;Selects Event&lt;/span&gt;" style="ellipse;whiteSpace=wrap;fillColor=#FFE45E;shadow=1;strokeColor=#FF6392;strokeWidth=4;html=1;labelBorderColor=none;labelBackgroundColor=none;align=center;fontSize=17;fontColor=#0000FF;fontStyle=1" parent="1" vertex="1">
                    <mxGeometry x="340" y="270" width="170" height="50" as="geometry"/>
                </mxCell>
                <mxCell id="ylemCj7u5r1lWfcAkgnr-181" value="&lt;span&gt;Selects Event Type&lt;/span&gt;" style="ellipse;whiteSpace=wrap;fillColor=#FFE45E;shadow=1;strokeColor=#FF6392;strokeWidth=4;html=1;labelBorderColor=none;labelBackgroundColor=none;align=center;fontSize=17;fontColor=#0000FF;fontStyle=1" parent="1" vertex="1">
                    <mxGeometry x="340" y="207.5" width="170" height="55" as="geometry"/>
                </mxCell>
                <mxCell id="ylemCj7u5r1lWfcAkgnr-182" value="&lt;span&gt;Initially&amp;nbsp;&lt;/span&gt;&lt;br&gt;&lt;span&gt;Interfaces Kiosk&lt;/span&gt;" style="ellipse;whiteSpace=wrap;fillColor=#FFE45E;shadow=1;strokeColor=#FF6392;strokeWidth=4;html=1;labelBorderColor=none;labelBackgroundColor=none;align=center;fontSize=17;fontColor=#0000FF;fontStyle=1" parent="1" vertex="1">
                    <mxGeometry x="340" y="137.5" width="170" height="65" as="geometry"/>
                </mxCell>
                <mxCell id="ylemCj7u5r1lWfcAkgnr-183" value="&lt;span style=&quot;font-size: 30px ; font-weight: 700&quot;&gt;User&lt;/span&gt;" style="shape=actor;whiteSpace=wrap;shadow=1;glass=1;strokeWidth=4;fillColor=#FFE45E;strokeColor=#FF6392;labelBackgroundColor=none;labelBorderColor=none;html=1;align=center;fontColor=#0000FF;" parent="1" vertex="1">
                    <mxGeometry x="30" y="317.5" width="130" height="200" as="geometry"/>
                </mxCell>
                <mxCell id="ylemCj7u5r1lWfcAkgnr-184" value="&lt;span&gt;Internet Connection&lt;/span&gt;" style="ellipse;shape=cloud;whiteSpace=wrap;shadow=1;glass=0;labelBackgroundColor=none;fontSize=17;strokeColor=#FF6392;strokeWidth=4;fillColor=#FFE45E;html=1;labelBorderColor=none;align=center;fontColor=#0000FF;fontStyle=1" parent="1" vertex="1">
                    <mxGeometry x="970" y="343" width="210" height="185" as="geometry"/>
                </mxCell>
                <mxCell id="ylemCj7u5r1lWfcAkgnr-185" value="&lt;span&gt;Printer&lt;/span&gt;" style="whiteSpace=wrap;shadow=1;glass=0;fontSize=17;strokeWidth=4;labelBackgroundColor=none;fillColor=#FFE45E;strokeColor=#FF6392;html=1;labelBorderColor=none;align=center;fontColor=#0000FF;fontStyle=1" parent="1" vertex="1">
                    <mxGeometry x="730" y="730" width="120" height="50" as="geometry"/>
                </mxCell>
                <mxCell id="ylemCj7u5r1lWfcAkgnr-186" value="&lt;span&gt;Cash Exchanger&lt;/span&gt;" style="whiteSpace=wrap;shadow=1;glass=0;fontSize=17;strokeWidth=4;labelBackgroundColor=none;fillColor=#FFE45E;strokeColor=#FF6392;html=1;labelBorderColor=none;align=center;fontColor=#0000FF;fontStyle=1" parent="1" vertex="1">
                    <mxGeometry x="730" y="670" width="120" height="50" as="geometry"/>
                </mxCell>
                <mxCell id="ylemCj7u5r1lWfcAkgnr-187" value="&lt;span&gt;Bluetooth&lt;/span&gt;" style="whiteSpace=wrap;shadow=1;glass=0;fontSize=17;strokeWidth=4;labelBackgroundColor=none;fillColor=#FFE45E;strokeColor=#FF6392;html=1;labelBorderColor=none;align=center;fontColor=#0000FF;fontStyle=1" parent="1" vertex="1">
                    <mxGeometry x="730" y="610" width="120" height="50" as="geometry"/>
                </mxCell>
                <mxCell id="ylemCj7u5r1lWfcAkgnr-188" value="&lt;span&gt;Event Database&lt;/span&gt;" style="shape=cylinder3;whiteSpace=wrap;boundedLbl=1;backgroundOutline=1;size=15;shadow=1;glass=0;labelBackgroundColor=none;fontSize=17;strokeWidth=4;fillColor=#FFE45E;strokeColor=#FF6392;html=1;labelBorderColor=none;align=center;fontColor=#0000FF;fontStyle=1" parent="1" vertex="1">
                    <mxGeometry x="737.5" y="430" width="105" height="80" as="geometry"/>
                </mxCell>
                <mxCell id="ylemCj7u5r1lWfcAkgnr-189" value="&lt;span&gt;Media Database&lt;/span&gt;" style="shape=cylinder3;whiteSpace=wrap;boundedLbl=1;backgroundOutline=1;size=15;shadow=1;glass=0;labelBackgroundColor=none;fontSize=17;strokeWidth=4;fillColor=#FFE45E;strokeColor=#FF6392;html=1;labelBorderColor=none;align=center;fontColor=#0000FF;fontStyle=1" parent="1" vertex="1">
                    <mxGeometry x="737.5" y="335" width="105" height="85" as="geometry"/>
                </mxCell>
                <mxCell id="ylemCj7u5r1lWfcAkgnr-190" value="&lt;span&gt;Advertiser Database&lt;/span&gt;" style="shape=cylinder3;whiteSpace=wrap;boundedLbl=1;backgroundOutline=1;size=15;shadow=1;glass=0;labelBackgroundColor=none;fontSize=17;strokeWidth=4;fillColor=#FFE45E;strokeColor=#FF6392;html=1;labelBorderColor=none;align=center;fontColor=#0000FF;fontStyle=1" parent="1" vertex="1">
                    <mxGeometry x="737.5" y="240" width="105" height="85" as="geometry"/>
                </mxCell>
                <mxCell id="ylemCj7u5r1lWfcAkgnr-191" value="&lt;span&gt;Speakers&lt;/span&gt;" style="whiteSpace=wrap;shadow=1;glass=0;fontSize=17;strokeWidth=4;labelBackgroundColor=none;fillColor=#FFE45E;strokeColor=#FF6392;html=1;labelBorderColor=none;align=center;fontColor=#0000FF;fontStyle=1" parent="1" vertex="1">
                    <mxGeometry x="730" y="180" width="120" height="50" as="geometry"/>
                </mxCell>
                <mxCell id="ylemCj7u5r1lWfcAkgnr-192" value="&lt;span&gt;LCD Screen&lt;/span&gt;" style="whiteSpace=wrap;shadow=1;glass=0;fontSize=17;strokeWidth=4;labelBackgroundColor=none;fillColor=#FFE45E;strokeColor=#FF6392;html=1;labelBorderColor=none;align=center;fontColor=#0000FF;fontStyle=1" parent="1" vertex="1">
                    <mxGeometry x="730" y="120" width="120" height="50" as="geometry"/>
                </mxCell>
                <mxCell id="ylemCj7u5r1lWfcAkgnr-193" value="&lt;span&gt;Card Reader&lt;/span&gt;" style="whiteSpace=wrap;shadow=1;glass=0;fontSize=17;strokeWidth=4;labelBackgroundColor=none;fillColor=#FFE45E;strokeColor=#FF6392;html=1;labelBorderColor=none;align=center;fontColor=#0000FF;fontStyle=1" parent="1" vertex="1">
                    <mxGeometry x="710" y="532.5" width="80" height="50" as="geometry"/>
                </mxCell>
                <mxCell id="ylemCj7u5r1lWfcAkgnr-194" value="" style="edgeStyle=none;endArrow=none;verticalAlign=bottom;strokeColor=#FF6392;strokeWidth=4;exitX=1;exitY=0.5;exitDx=0;exitDy=0;shadow=1;html=1;labelBorderColor=none;labelBackgroundColor=none;align=center;fontSize=17;fontColor=#0000FF;fontStyle=1;entryX=0;entryY=0.5;entryDx=0;entryDy=0;entryPerimeter=0;" parent="1" source="ylemCj7u5r1lWfcAkgnr-193" target="ylemCj7u5r1lWfcAkgnr-195" edge="1">
                    <mxGeometry width="160" relative="1" as="geometry">
                        <mxPoint x="955" y="597.5" as="sourcePoint"/>
                        <mxPoint x="1025.75" y="474.76" as="targetPoint"/>
                        <Array as="points"/>
                    </mxGeometry>
                </mxCell>
                <mxCell id="ylemCj7u5r1lWfcAkgnr-195" value="&lt;span&gt;CreditCard Database&lt;/span&gt;" style="shape=cylinder3;whiteSpace=wrap;boundedLbl=1;backgroundOutline=1;size=15;shadow=1;glass=0;labelBackgroundColor=none;fontSize=17;strokeWidth=4;fillColor=#FFE45E;strokeColor=#FF6392;html=1;labelBorderColor=none;align=center;fontColor=#0000FF;fontStyle=1" parent="1" vertex="1">
                    <mxGeometry x="810" y="517.5" width="105" height="80" as="geometry"/>
                </mxCell>
            </root>
        </mxGraphModel>
    </diagram>
    <diagram name="2.2" id="MHnFXJPR3F26O8miM7Bn">
        <mxGraphModel dx="2300" dy="1317" grid="0" gridSize="10" guides="1" tooltips="1" connect="1" arrows="1" fold="1" page="0" pageScale="1" pageWidth="850" pageHeight="1100" background="#ffffff" math="0" shadow="1">
            <root>
                <mxCell id="Tuy6HMVft_M20eq7TQrm-0"/>
                <mxCell id="Tuy6HMVft_M20eq7TQrm-1" parent="Tuy6HMVft_M20eq7TQrm-0"/>
                <mxCell id="Tuy6HMVft_M20eq7TQrm-2" value="" style="edgeStyle=none;endArrow=none;verticalAlign=bottom;strokeColor=#001DBC;strokeWidth=4;exitX=0;exitY=0.5;exitDx=0;exitDy=0;shadow=1;html=1;labelBorderColor=none;labelBackgroundColor=none;align=center;fontColor=#0000FF;entryX=1;entryY=0.5;entryDx=0;entryDy=0;fillColor=#0050ef;exitPerimeter=0;" parent="Tuy6HMVft_M20eq7TQrm-1" source="Tuy6HMVft_M20eq7TQrm-34" target="Tuy6HMVft_M20eq7TQrm-58" edge="1">
                    <mxGeometry width="160" relative="1" as="geometry">
                        <mxPoint x="920" y="194" as="sourcePoint"/>
                        <mxPoint x="550" y="239.2500000000001" as="targetPoint"/>
                        <Array as="points">
                            <mxPoint x="680" y="400"/>
                        </Array>
                    </mxGeometry>
                </mxCell>
                <mxCell id="Tuy6HMVft_M20eq7TQrm-3" value="" style="edgeStyle=none;endArrow=none;verticalAlign=bottom;strokeColor=#001DBC;strokeWidth=4;shadow=1;html=1;labelBorderColor=none;labelBackgroundColor=none;align=center;fontColor=#0000FF;entryX=1;entryY=0.5;entryDx=0;entryDy=0;fillColor=#0050ef;exitX=0;exitY=0.5;exitDx=0;exitDy=0;" parent="Tuy6HMVft_M20eq7TQrm-1" source="Tuy6HMVft_M20eq7TQrm-38" target="Tuy6HMVft_M20eq7TQrm-54" edge="1">
                    <mxGeometry width="160" relative="1" as="geometry">
                        <mxPoint x="888" y="440" as="sourcePoint"/>
                        <mxPoint x="509.1599999999986" y="308.59" as="targetPoint"/>
                        <Array as="points">
                            <mxPoint x="679" y="476"/>
                        </Array>
                    </mxGeometry>
                </mxCell>
                <mxCell id="Tuy6HMVft_M20eq7TQrm-4" value="" style="edgeStyle=none;endArrow=none;verticalAlign=bottom;strokeColor=#006EAF;strokeWidth=4;shadow=1;html=1;labelBorderColor=none;labelBackgroundColor=none;align=center;fontColor=#0000FF;entryX=1;entryY=0.5;entryDx=0;entryDy=0;fillColor=#1ba1e2;exitX=0;exitY=0;exitDx=0;exitDy=15;exitPerimeter=0;" parent="Tuy6HMVft_M20eq7TQrm-1" source="Tuy6HMVft_M20eq7TQrm-33" target="Tuy6HMVft_M20eq7TQrm-58" edge="1">
                    <mxGeometry width="160" relative="1" as="geometry">
                        <mxPoint x="887" y="329" as="sourcePoint"/>
                        <mxPoint x="550" y="319.75" as="targetPoint"/>
                        <Array as="points">
                            <mxPoint x="680" y="280"/>
                        </Array>
                    </mxGeometry>
                </mxCell>
                <mxCell id="Tuy6HMVft_M20eq7TQrm-5" value="" style="edgeStyle=none;endArrow=none;verticalAlign=bottom;strokeColor=#006EAF;strokeWidth=4;shadow=1;html=1;labelBorderColor=none;labelBackgroundColor=none;align=center;fontColor=#0000FF;entryX=1;entryY=0.5;entryDx=0;entryDy=0;fillColor=#1ba1e2;" parent="Tuy6HMVft_M20eq7TQrm-1" target="Tuy6HMVft_M20eq7TQrm-55" edge="1">
                    <mxGeometry width="160" relative="1" as="geometry">
                        <mxPoint x="886" y="566" as="sourcePoint"/>
                        <mxPoint x="550" y="319.75" as="targetPoint"/>
                        <Array as="points">
                            <mxPoint x="680" y="566"/>
                        </Array>
                    </mxGeometry>
                </mxCell>
                <mxCell id="Tuy6HMVft_M20eq7TQrm-6" value="" style="edgeStyle=none;endArrow=none;verticalAlign=bottom;strokeColor=#006EAF;strokeWidth=4;shadow=1;html=1;labelBorderColor=none;labelBackgroundColor=none;align=center;fontColor=#0000FF;fillColor=#1ba1e2;exitX=0;exitY=0;exitDx=0;exitDy=15;exitPerimeter=0;entryX=1;entryY=0.5;entryDx=0;entryDy=0;" parent="Tuy6HMVft_M20eq7TQrm-1" source="Tuy6HMVft_M20eq7TQrm-33" target="Tuy6HMVft_M20eq7TQrm-54" edge="1">
                    <mxGeometry width="160" relative="1" as="geometry">
                        <mxPoint x="927" y="369" as="sourcePoint"/>
                        <mxPoint x="520" y="600" as="targetPoint"/>
                        <Array as="points">
                            <mxPoint x="680" y="280"/>
                        </Array>
                    </mxGeometry>
                </mxCell>
                <mxCell id="Tuy6HMVft_M20eq7TQrm-7" value="" style="edgeStyle=none;endArrow=none;verticalAlign=bottom;strokeColor=#006EAF;strokeWidth=4;shadow=1;html=1;labelBorderColor=none;labelBackgroundColor=none;align=center;fontColor=#0000FF;fillColor=#1ba1e2;" parent="Tuy6HMVft_M20eq7TQrm-1" edge="1">
                    <mxGeometry width="160" relative="1" as="geometry">
                        <mxPoint x="887" y="566" as="sourcePoint"/>
                        <mxPoint x="520" y="600" as="targetPoint"/>
                        <Array as="points">
                            <mxPoint x="680" y="566"/>
                        </Array>
                    </mxGeometry>
                </mxCell>
                <mxCell id="Tuy6HMVft_M20eq7TQrm-8" value="" style="edgeStyle=none;endArrow=none;verticalAlign=bottom;strokeColor=#A50040;strokeWidth=4;exitX=0.015;exitY=0.656;exitDx=0;exitDy=0;shadow=1;html=1;labelBorderColor=none;labelBackgroundColor=none;align=center;fontColor=#0000FF;entryX=1;entryY=0.5;entryDx=0;entryDy=0;fillColor=#d80073;exitPerimeter=0;" parent="Tuy6HMVft_M20eq7TQrm-1" source="Tuy6HMVft_M20eq7TQrm-52" target="Tuy6HMVft_M20eq7TQrm-59" edge="1">
                    <mxGeometry width="160" relative="1" as="geometry">
                        <mxPoint x="920" y="134" as="sourcePoint"/>
                        <mxPoint x="549.9999999999986" y="239.25" as="targetPoint"/>
                        <Array as="points">
                            <mxPoint x="680" y="633"/>
                        </Array>
                    </mxGeometry>
                </mxCell>
                <mxCell id="Tuy6HMVft_M20eq7TQrm-9" value="" style="edgeStyle=none;endArrow=none;verticalAlign=bottom;strokeColor=#A50040;strokeWidth=4;shadow=1;html=1;labelBorderColor=none;labelBackgroundColor=none;align=center;fontColor=#0000FF;entryX=1;entryY=0.5;entryDx=0;entryDy=0;fillColor=#d80073;" parent="Tuy6HMVft_M20eq7TQrm-1" target="Tuy6HMVft_M20eq7TQrm-57" edge="1">
                    <mxGeometry width="160" relative="1" as="geometry">
                        <mxPoint x="888" y="200" as="sourcePoint"/>
                        <mxPoint x="550" y="319.75" as="targetPoint"/>
                        <Array as="points">
                            <mxPoint x="680" y="200"/>
                        </Array>
                    </mxGeometry>
                </mxCell>
                <mxCell id="Tuy6HMVft_M20eq7TQrm-10" value="" style="edgeStyle=none;endArrow=none;verticalAlign=bottom;strokeColor=#A50040;strokeWidth=4;shadow=1;html=1;labelBorderColor=none;labelBackgroundColor=none;align=center;fontColor=#0000FF;fillColor=#d80073;entryX=1;entryY=0.5;entryDx=0;entryDy=0;" parent="Tuy6HMVft_M20eq7TQrm-1" target="Tuy6HMVft_M20eq7TQrm-54" edge="1">
                    <mxGeometry width="160" relative="1" as="geometry">
                        <mxPoint x="885" y="200" as="sourcePoint"/>
                        <mxPoint x="520" y="600" as="targetPoint"/>
                        <Array as="points">
                            <mxPoint x="680" y="200"/>
                        </Array>
                    </mxGeometry>
                </mxCell>
                <mxCell id="Tuy6HMVft_M20eq7TQrm-11" value="" style="edgeStyle=none;endArrow=none;verticalAlign=bottom;strokeColor=#A50040;strokeWidth=4;shadow=1;html=1;labelBorderColor=none;labelBackgroundColor=none;align=center;fontColor=#0000FF;entryX=1;entryY=0.5;entryDx=0;entryDy=0;fillColor=#d80073;" parent="Tuy6HMVft_M20eq7TQrm-1" target="Tuy6HMVft_M20eq7TQrm-54" edge="1">
                    <mxGeometry width="160" relative="1" as="geometry">
                        <mxPoint x="880" y="633" as="sourcePoint"/>
                        <mxPoint x="549.9999999999986" y="239.25" as="targetPoint"/>
                        <Array as="points">
                            <mxPoint x="680" y="633"/>
                        </Array>
                    </mxGeometry>
                </mxCell>
                <mxCell id="Tuy6HMVft_M20eq7TQrm-12" value="" style="edgeStyle=none;endArrow=none;verticalAlign=bottom;strokeColor=#B20000;strokeWidth=4;exitX=0;exitY=0.25;exitDx=0;exitDy=0;shadow=1;html=1;labelBorderColor=none;labelBackgroundColor=none;align=center;fontColor=#0000FF;entryX=1;entryY=0.5;entryDx=0;entryDy=0;fillColor=#e51400;" parent="Tuy6HMVft_M20eq7TQrm-1" source="Tuy6HMVft_M20eq7TQrm-31" target="Tuy6HMVft_M20eq7TQrm-59" edge="1">
                    <mxGeometry width="160" relative="1" as="geometry">
                        <mxPoint x="618.9" y="189" as="sourcePoint"/>
                        <mxPoint x="509.9999999999999" y="195.34000000000003" as="targetPoint"/>
                        <Array as="points">
                            <mxPoint x="680" y="120"/>
                        </Array>
                    </mxGeometry>
                </mxCell>
                <mxCell id="Tuy6HMVft_M20eq7TQrm-13" value="" style="edgeStyle=none;endArrow=none;verticalAlign=bottom;strokeColor=#B20000;strokeWidth=4;shadow=1;html=1;labelBorderColor=none;labelBackgroundColor=none;align=center;fontColor=#0000FF;entryX=1;entryY=0.5;entryDx=0;entryDy=0;fillColor=#e51400;" parent="Tuy6HMVft_M20eq7TQrm-1" target="Tuy6HMVft_M20eq7TQrm-59" edge="1">
                    <mxGeometry width="160" relative="1" as="geometry">
                        <mxPoint x="880" y="680" as="sourcePoint"/>
                        <mxPoint x="549.9999999999998" y="239.25" as="targetPoint"/>
                        <Array as="points">
                            <mxPoint x="680" y="680"/>
                        </Array>
                    </mxGeometry>
                </mxCell>
                <mxCell id="Tuy6HMVft_M20eq7TQrm-14" value="" style="edgeStyle=none;endArrow=none;verticalAlign=bottom;strokeColor=#B20000;strokeWidth=4;exitX=-0.021;exitY=0.407;exitDx=0;exitDy=0;shadow=1;html=1;labelBorderColor=none;labelBackgroundColor=none;align=center;fontColor=#0000FF;entryX=1;entryY=0.5;entryDx=0;entryDy=0;fillColor=#e51400;exitPerimeter=0;" parent="Tuy6HMVft_M20eq7TQrm-1" source="Tuy6HMVft_M20eq7TQrm-35" target="Tuy6HMVft_M20eq7TQrm-56" edge="1">
                    <mxGeometry width="160" relative="1" as="geometry">
                        <mxPoint x="928.3400000000001" y="465.1600000000001" as="sourcePoint"/>
                        <mxPoint x="550" y="319.75" as="targetPoint"/>
                        <Array as="points">
                            <mxPoint x="680" y="680"/>
                        </Array>
                    </mxGeometry>
                </mxCell>
                <mxCell id="Tuy6HMVft_M20eq7TQrm-15" value="" style="edgeStyle=none;endArrow=none;verticalAlign=bottom;strokeColor=#B20000;strokeWidth=4;shadow=1;html=1;labelBorderColor=none;labelBackgroundColor=none;align=center;fontColor=#0000FF;entryX=1;entryY=0.5;entryDx=0;entryDy=0;fillColor=#e51400;" parent="Tuy6HMVft_M20eq7TQrm-1" target="Tuy6HMVft_M20eq7TQrm-54" edge="1">
                    <mxGeometry width="160" relative="1" as="geometry">
                        <mxPoint x="880" y="680" as="sourcePoint"/>
                        <mxPoint x="550" y="480.25" as="targetPoint"/>
                        <Array as="points">
                            <mxPoint x="680" y="680"/>
                        </Array>
                    </mxGeometry>
                </mxCell>
                <mxCell id="Tuy6HMVft_M20eq7TQrm-16" value="" style="edgeStyle=none;endArrow=none;verticalAlign=bottom;strokeColor=#B20000;strokeWidth=4;shadow=1;html=1;labelBorderColor=none;labelBackgroundColor=none;align=center;fontColor=#0000FF;entryX=1;entryY=0.5;entryDx=0;entryDy=0;fillColor=#e51400;" parent="Tuy6HMVft_M20eq7TQrm-1" target="Tuy6HMVft_M20eq7TQrm-54" edge="1">
                    <mxGeometry width="160" relative="1" as="geometry">
                        <mxPoint x="880" y="120" as="sourcePoint"/>
                        <mxPoint x="549.9999999999998" y="239.25" as="targetPoint"/>
                        <Array as="points">
                            <mxPoint x="680" y="120"/>
                        </Array>
                    </mxGeometry>
                </mxCell>
                <mxCell id="Tuy6HMVft_M20eq7TQrm-17" value="" style="edgeStyle=none;endArrow=none;verticalAlign=bottom;strokeColor=#6F0000;strokeWidth=4;exitX=0;exitY=0.5;exitDx=0;exitDy=0;shadow=1;html=1;labelBorderColor=none;labelBackgroundColor=none;align=center;fontColor=#0000FF;entryX=1;entryY=0.5;entryDx=0;entryDy=0;fillColor=#a20025;" parent="Tuy6HMVft_M20eq7TQrm-1" source="Tuy6HMVft_M20eq7TQrm-39" target="Tuy6HMVft_M20eq7TQrm-59" edge="1">
                    <mxGeometry width="160" relative="1" as="geometry">
                        <mxPoint x="920" y="194" as="sourcePoint"/>
                        <mxPoint x="520" y="194" as="targetPoint"/>
                        <Array as="points">
                            <mxPoint x="680" y="75"/>
                        </Array>
                    </mxGeometry>
                </mxCell>
                <mxCell id="Tuy6HMVft_M20eq7TQrm-18" value="" style="edgeStyle=none;endArrow=none;verticalAlign=bottom;strokeColor=#6F0000;strokeWidth=4;shadow=1;html=1;labelBorderColor=none;labelBackgroundColor=none;align=center;fontColor=#0000FF;entryX=0.996;entryY=0.589;entryDx=0;entryDy=0;entryPerimeter=0;fillColor=#a20025;" parent="Tuy6HMVft_M20eq7TQrm-1" target="Tuy6HMVft_M20eq7TQrm-59" edge="1">
                    <mxGeometry width="160" relative="1" as="geometry">
                        <mxPoint x="880" y="753" as="sourcePoint"/>
                        <mxPoint x="549.9999999999998" y="239.25" as="targetPoint"/>
                        <Array as="points">
                            <mxPoint x="680" y="753"/>
                        </Array>
                    </mxGeometry>
                </mxCell>
                <mxCell id="Tuy6HMVft_M20eq7TQrm-19" value="" style="edgeStyle=none;endArrow=none;verticalAlign=bottom;strokeColor=#6F0000;strokeWidth=4;exitX=0.015;exitY=0.629;exitDx=0;exitDy=0;shadow=1;html=1;labelBorderColor=none;labelBackgroundColor=none;align=center;fontColor=#0000FF;entryX=1;entryY=0.5;entryDx=0;entryDy=0;fillColor=#a20025;exitPerimeter=0;" parent="Tuy6HMVft_M20eq7TQrm-1" source="Tuy6HMVft_M20eq7TQrm-37" target="Tuy6HMVft_M20eq7TQrm-54" edge="1">
                    <mxGeometry width="160" relative="1" as="geometry">
                        <mxPoint x="920" y="744" as="sourcePoint"/>
                        <mxPoint x="549.3200000000002" y="245.7025000000001" as="targetPoint"/>
                        <Array as="points">
                            <mxPoint x="680" y="753"/>
                        </Array>
                    </mxGeometry>
                </mxCell>
                <mxCell id="Tuy6HMVft_M20eq7TQrm-20" value="" style="edgeStyle=none;endArrow=none;verticalAlign=bottom;strokeColor=#6F0000;strokeWidth=4;exitX=0;exitY=0.5;exitDx=0;exitDy=0;shadow=1;html=1;labelBorderColor=none;labelBackgroundColor=none;align=center;fontColor=#0000FF;entryX=1;entryY=0.5;entryDx=0;entryDy=0;fillColor=#a20025;" parent="Tuy6HMVft_M20eq7TQrm-1" source="Tuy6HMVft_M20eq7TQrm-39" target="Tuy6HMVft_M20eq7TQrm-54" edge="1">
                    <mxGeometry width="160" relative="1" as="geometry">
                        <mxPoint x="885" y="101.37" as="sourcePoint"/>
                        <mxPoint x="515" y="206.62000000000012" as="targetPoint"/>
                        <Array as="points">
                            <mxPoint x="685" y="75"/>
                        </Array>
                    </mxGeometry>
                </mxCell>
                <mxCell id="Tuy6HMVft_M20eq7TQrm-21" value="" style="whiteSpace=wrap;strokeColor=#A50040;strokeWidth=4;perimeterSpacing=5;shadow=1;glass=1;html=1;labelBorderColor=none;labelBackgroundColor=none;align=center;fontSize=17;fontColor=#ffffff;fontStyle=1;fillColor=none;" parent="Tuy6HMVft_M20eq7TQrm-1" vertex="1">
                    <mxGeometry x="290" y="74" width="270" height="650" as="geometry"/>
                </mxCell>
                <mxCell id="Tuy6HMVft_M20eq7TQrm-22" value="" style="edgeStyle=none;endArrow=none;verticalAlign=bottom;strokeWidth=4;exitX=0.5;exitY=0;exitDx=0;exitDy=0;shadow=1;html=1;labelBorderColor=none;labelBackgroundColor=none;align=center;fontColor=#0000FF;fillColor=#a20025;entryX=0.511;entryY=0.964;entryDx=0;entryDy=0;entryPerimeter=0;strokeColor=#FF66B3;" parent="Tuy6HMVft_M20eq7TQrm-1" source="Tuy6HMVft_M20eq7TQrm-61" target="Tuy6HMVft_M20eq7TQrm-62" edge="1">
                    <mxGeometry width="160" relative="1" as="geometry">
                        <mxPoint x="148.70000000000005" y="440.9000000000001" as="sourcePoint"/>
                        <mxPoint x="148" y="222" as="targetPoint"/>
                    </mxGeometry>
                </mxCell>
                <mxCell id="Tuy6HMVft_M20eq7TQrm-23" value="" style="edgeStyle=none;endArrow=none;verticalAlign=bottom;strokeWidth=4;exitX=0;exitY=0.5;exitDx=0;exitDy=0;shadow=1;html=1;labelBorderColor=none;labelBackgroundColor=none;align=center;fontColor=#0000FF;entryX=0.91;entryY=0.414;entryDx=0;entryDy=0;entryPerimeter=0;fillColor=#a20025;strokeColor=#FF66B3;" parent="Tuy6HMVft_M20eq7TQrm-1" source="Tuy6HMVft_M20eq7TQrm-60" target="Tuy6HMVft_M20eq7TQrm-62" edge="1">
                    <mxGeometry width="160" relative="1" as="geometry">
                        <mxPoint x="185" y="389" as="sourcePoint"/>
                        <mxPoint x="188" y="262" as="targetPoint"/>
                        <Array as="points">
                            <mxPoint x="280" y="118"/>
                        </Array>
                    </mxGeometry>
                </mxCell>
                <mxCell id="Tuy6HMVft_M20eq7TQrm-24" value="" style="edgeStyle=none;endArrow=none;verticalAlign=bottom;strokeWidth=4;exitX=0;exitY=0.5;exitDx=0;exitDy=0;shadow=1;html=1;labelBorderColor=none;labelBackgroundColor=none;align=center;fontColor=#0000FF;entryX=0.96;entryY=0.7;entryDx=0;entryDy=0;entryPerimeter=0;fillColor=#a20025;strokeColor=#FF66B3;" parent="Tuy6HMVft_M20eq7TQrm-1" source="Tuy6HMVft_M20eq7TQrm-59" target="Tuy6HMVft_M20eq7TQrm-62" edge="1">
                    <mxGeometry width="160" relative="1" as="geometry">
                        <mxPoint x="920" y="624" as="sourcePoint"/>
                        <mxPoint x="549.9999999999986" y="239.25" as="targetPoint"/>
                        <Array as="points">
                            <mxPoint x="280" y="199"/>
                        </Array>
                    </mxGeometry>
                </mxCell>
                <mxCell id="Tuy6HMVft_M20eq7TQrm-25" value="" style="edgeStyle=none;endArrow=none;verticalAlign=bottom;strokeWidth=4;exitX=0;exitY=0.5;exitDx=0;exitDy=0;shadow=1;html=1;labelBorderColor=none;labelBackgroundColor=none;align=center;fontColor=#0000FF;fillColor=#a20025;strokeColor=#FF66B3;" parent="Tuy6HMVft_M20eq7TQrm-1" source="Tuy6HMVft_M20eq7TQrm-58" edge="1">
                    <mxGeometry width="160" relative="1" as="geometry">
                        <mxPoint x="380" y="239.2500000000001" as="sourcePoint"/>
                        <mxPoint x="240" y="400" as="targetPoint"/>
                        <Array as="points">
                            <mxPoint x="280" y="280"/>
                        </Array>
                    </mxGeometry>
                </mxCell>
                <mxCell id="Tuy6HMVft_M20eq7TQrm-26" value="" style="edgeStyle=none;endArrow=none;verticalAlign=bottom;strokeWidth=4;exitX=0;exitY=0.5;exitDx=0;exitDy=0;shadow=1;html=1;labelBorderColor=none;labelBackgroundColor=none;align=center;fontColor=#0000FF;fillColor=#a20025;strokeColor=#FF66B3;" parent="Tuy6HMVft_M20eq7TQrm-1" source="Tuy6HMVft_M20eq7TQrm-57" edge="1">
                    <mxGeometry width="160" relative="1" as="geometry">
                        <mxPoint x="420" y="279.2500000000001" as="sourcePoint"/>
                        <mxPoint x="240" y="400" as="targetPoint"/>
                        <Array as="points">
                            <mxPoint x="280" y="360"/>
                        </Array>
                    </mxGeometry>
                </mxCell>
                <mxCell id="Tuy6HMVft_M20eq7TQrm-27" value="" style="edgeStyle=none;endArrow=none;verticalAlign=bottom;strokeWidth=4;exitX=0;exitY=0.5;exitDx=0;exitDy=0;shadow=1;html=1;labelBorderColor=none;labelBackgroundColor=none;align=center;fontColor=#0000FF;fillColor=#a20025;strokeColor=#FF66B3;" parent="Tuy6HMVft_M20eq7TQrm-1" source="Tuy6HMVft_M20eq7TQrm-56" edge="1">
                    <mxGeometry width="160" relative="1" as="geometry">
                        <mxPoint x="460" y="319.2500000000001" as="sourcePoint"/>
                        <mxPoint x="240" y="400" as="targetPoint"/>
                        <Array as="points">
                            <mxPoint x="280" y="440"/>
                        </Array>
                    </mxGeometry>
                </mxCell>
                <mxCell id="Tuy6HMVft_M20eq7TQrm-28" value="" style="edgeStyle=none;endArrow=none;verticalAlign=bottom;strokeWidth=4;exitX=0;exitY=0.5;exitDx=0;exitDy=0;shadow=1;html=1;labelBorderColor=none;labelBackgroundColor=none;align=center;fontColor=#0000FF;fillColor=#a20025;entryX=0.96;entryY=0.7;entryDx=0;entryDy=0;entryPerimeter=0;strokeColor=#FF66B3;" parent="Tuy6HMVft_M20eq7TQrm-1" source="Tuy6HMVft_M20eq7TQrm-55" target="Tuy6HMVft_M20eq7TQrm-62" edge="1">
                    <mxGeometry width="160" relative="1" as="geometry">
                        <mxPoint x="382.54999999999995" y="485.97749999999996" as="sourcePoint"/>
                        <mxPoint x="280" y="440" as="targetPoint"/>
                        <Array as="points">
                            <mxPoint x="280" y="520"/>
                        </Array>
                    </mxGeometry>
                </mxCell>
                <mxCell id="Tuy6HMVft_M20eq7TQrm-29" value="" style="edgeStyle=none;endArrow=none;verticalAlign=bottom;strokeWidth=4;exitX=0;exitY=0.5;exitDx=0;exitDy=0;shadow=1;html=1;labelBorderColor=none;labelBackgroundColor=none;align=center;fontColor=#0000FF;fillColor=#a20025;strokeColor=#FF66B3;" parent="Tuy6HMVft_M20eq7TQrm-1" source="Tuy6HMVft_M20eq7TQrm-54" edge="1">
                    <mxGeometry width="160" relative="1" as="geometry">
                        <mxPoint x="340" y="592.75" as="sourcePoint"/>
                        <mxPoint x="242" y="400" as="targetPoint"/>
                        <Array as="points">
                            <mxPoint x="280" y="600"/>
                        </Array>
                    </mxGeometry>
                </mxCell>
                <mxCell id="Tuy6HMVft_M20eq7TQrm-30" value="" style="edgeStyle=none;endArrow=none;verticalAlign=bottom;strokeWidth=4;shadow=1;html=1;labelBorderColor=none;labelBackgroundColor=none;align=center;fontColor=#0000FF;fillColor=#a20025;strokeColor=#FF66B3;" parent="Tuy6HMVft_M20eq7TQrm-1" source="Tuy6HMVft_M20eq7TQrm-53" edge="1">
                    <mxGeometry width="160" relative="1" as="geometry">
                        <mxPoint x="380" y="640.75" as="sourcePoint"/>
                        <mxPoint x="240" y="400" as="targetPoint"/>
                        <Array as="points">
                            <mxPoint x="280" y="680"/>
                        </Array>
                    </mxGeometry>
                </mxCell>
                <mxCell id="Tuy6HMVft_M20eq7TQrm-31" value="&lt;span&gt;Speakers&lt;/span&gt;" style="whiteSpace=wrap;shadow=1;glass=0;fontSize=17;strokeWidth=4;labelBackgroundColor=none;fillColor=#FFE45E;strokeColor=#FF6392;html=1;labelBorderColor=none;align=center;fontColor=#0000FF;fontStyle=1" parent="Tuy6HMVft_M20eq7TQrm-1" vertex="1">
                    <mxGeometry x="880" y="110" width="120" height="50" as="geometry"/>
                </mxCell>
                <mxCell id="Tuy6HMVft_M20eq7TQrm-32" value="&lt;span&gt;Advertiser Database&lt;/span&gt;" style="shape=cylinder3;whiteSpace=wrap;boundedLbl=1;backgroundOutline=1;size=15;shadow=1;glass=0;labelBackgroundColor=none;fontSize=17;strokeWidth=4;fillColor=#FFE45E;strokeColor=#FF6392;html=1;labelBorderColor=none;align=center;fontColor=#0000FF;fontStyle=1" parent="Tuy6HMVft_M20eq7TQrm-1" vertex="1">
                    <mxGeometry x="887.5" y="170" width="105" height="85" as="geometry"/>
                </mxCell>
                <mxCell id="Tuy6HMVft_M20eq7TQrm-33" value="&lt;span&gt;Media Database&lt;/span&gt;" style="shape=cylinder3;whiteSpace=wrap;boundedLbl=1;backgroundOutline=1;size=15;shadow=1;glass=0;labelBackgroundColor=none;fontSize=17;strokeWidth=4;fillColor=#FFE45E;strokeColor=#FF6392;html=1;labelBorderColor=none;align=center;fontColor=#0000FF;fontStyle=1" parent="Tuy6HMVft_M20eq7TQrm-1" vertex="1">
                    <mxGeometry x="887.5" y="265" width="105" height="85" as="geometry"/>
                </mxCell>
                <mxCell id="Tuy6HMVft_M20eq7TQrm-34" value="&lt;span&gt;Event Database&lt;/span&gt;" style="shape=cylinder3;whiteSpace=wrap;boundedLbl=1;backgroundOutline=1;size=15;shadow=1;glass=0;labelBackgroundColor=none;fontSize=17;strokeWidth=4;fillColor=#FFE45E;strokeColor=#FF6392;html=1;labelBorderColor=none;align=center;fontColor=#0000FF;fontStyle=1" parent="Tuy6HMVft_M20eq7TQrm-1" vertex="1">
                    <mxGeometry x="887.5" y="360" width="105" height="80" as="geometry"/>
                </mxCell>
                <mxCell id="Tuy6HMVft_M20eq7TQrm-35" value="&lt;span&gt;Cash Exchanger&lt;/span&gt;" style="whiteSpace=wrap;shadow=1;glass=0;fontSize=17;strokeWidth=4;labelBackgroundColor=none;fillColor=#FFE45E;strokeColor=#FF6392;html=1;labelBorderColor=none;align=center;fontColor=#0000FF;fontStyle=1" parent="Tuy6HMVft_M20eq7TQrm-1" vertex="1">
                    <mxGeometry x="880" y="660.5" width="120" height="50" as="geometry"/>
                </mxCell>
                <mxCell id="Tuy6HMVft_M20eq7TQrm-36" value="&lt;span&gt;CreditCard Database&lt;/span&gt;" style="shape=cylinder3;whiteSpace=wrap;boundedLbl=1;backgroundOutline=1;size=15;shadow=1;glass=0;labelBackgroundColor=none;fontSize=17;strokeWidth=4;fillColor=#FFE45E;strokeColor=#FF6392;html=1;labelBorderColor=none;align=center;fontColor=#0000FF;fontStyle=1" parent="Tuy6HMVft_M20eq7TQrm-1" vertex="1">
                    <mxGeometry x="887.5" y="510.5" width="105" height="80" as="geometry"/>
                </mxCell>
                <mxCell id="Tuy6HMVft_M20eq7TQrm-37" value="&lt;span&gt;Printer&lt;/span&gt;" style="whiteSpace=wrap;shadow=1;glass=0;fontSize=17;strokeWidth=4;labelBackgroundColor=none;fillColor=#FFE45E;strokeColor=#FF6392;html=1;labelBorderColor=none;align=center;fontColor=#0000FF;fontStyle=1" parent="Tuy6HMVft_M20eq7TQrm-1" vertex="1">
                    <mxGeometry x="880" y="720.5" width="120" height="50" as="geometry"/>
                </mxCell>
                <mxCell id="Tuy6HMVft_M20eq7TQrm-38" value="&lt;span&gt;Card Reader&lt;/span&gt;" style="whiteSpace=wrap;shadow=1;glass=0;fontSize=17;strokeWidth=4;labelBackgroundColor=none;fillColor=#FFE45E;strokeColor=#FF6392;html=1;labelBorderColor=none;align=center;fontColor=#0000FF;fontStyle=1" parent="Tuy6HMVft_M20eq7TQrm-1" vertex="1">
                    <mxGeometry x="880" y="451" width="120" height="50" as="geometry"/>
                </mxCell>
                <mxCell id="Tuy6HMVft_M20eq7TQrm-39" value="&lt;span&gt;LCD Screen&lt;/span&gt;" style="whiteSpace=wrap;shadow=1;glass=0;fontSize=17;strokeWidth=4;labelBackgroundColor=none;fillColor=#FFE45E;strokeColor=#FF6392;html=1;labelBorderColor=none;align=center;fontColor=#0000FF;fontStyle=1" parent="Tuy6HMVft_M20eq7TQrm-1" vertex="1">
                    <mxGeometry x="880" y="50" width="120" height="50" as="geometry"/>
                </mxCell>
                <mxCell id="Tuy6HMVft_M20eq7TQrm-40" value="&lt;span&gt;Speakers&lt;/span&gt;" style="whiteSpace=wrap;shadow=1;glass=0;fontSize=17;strokeWidth=4;labelBackgroundColor=none;fillColor=#FFE45E;strokeColor=#FF6392;html=1;labelBorderColor=none;align=center;fontColor=#0000FF;fontStyle=1" parent="Tuy6HMVft_M20eq7TQrm-1" vertex="1">
                    <mxGeometry x="880" y="110" width="120" height="50" as="geometry"/>
                </mxCell>
                <mxCell id="Tuy6HMVft_M20eq7TQrm-41" value="&lt;span&gt;Advertiser Database&lt;/span&gt;" style="shape=cylinder3;whiteSpace=wrap;boundedLbl=1;backgroundOutline=1;size=15;shadow=1;glass=0;labelBackgroundColor=none;fontSize=17;strokeWidth=4;fillColor=#FFE45E;strokeColor=#FF6392;html=1;labelBorderColor=none;align=center;fontColor=#0000FF;fontStyle=1" parent="Tuy6HMVft_M20eq7TQrm-1" vertex="1">
                    <mxGeometry x="887.5" y="170" width="105" height="85" as="geometry"/>
                </mxCell>
                <mxCell id="Tuy6HMVft_M20eq7TQrm-42" value="&lt;span&gt;Media Database&lt;/span&gt;" style="shape=cylinder3;whiteSpace=wrap;boundedLbl=1;backgroundOutline=1;size=15;shadow=1;glass=0;labelBackgroundColor=none;fontSize=17;strokeWidth=4;fillColor=#FFE45E;strokeColor=#FF6392;html=1;labelBorderColor=none;align=center;fontColor=#0000FF;fontStyle=1" parent="Tuy6HMVft_M20eq7TQrm-1" vertex="1">
                    <mxGeometry x="887.5" y="265" width="105" height="85" as="geometry"/>
                </mxCell>
                <mxCell id="Tuy6HMVft_M20eq7TQrm-43" value="&lt;span&gt;Event Database&lt;/span&gt;" style="shape=cylinder3;whiteSpace=wrap;boundedLbl=1;backgroundOutline=1;size=15;shadow=1;glass=0;labelBackgroundColor=none;fontSize=17;strokeWidth=4;fillColor=#FFE45E;strokeColor=#FF6392;html=1;labelBorderColor=none;align=center;fontColor=#0000FF;fontStyle=1" parent="Tuy6HMVft_M20eq7TQrm-1" vertex="1">
                    <mxGeometry x="887.5" y="360" width="105" height="80" as="geometry"/>
                </mxCell>
                <mxCell id="Tuy6HMVft_M20eq7TQrm-44" value="&lt;span&gt;Card Reader&lt;/span&gt;" style="whiteSpace=wrap;shadow=1;glass=0;fontSize=17;strokeWidth=4;labelBackgroundColor=none;fillColor=#FFE45E;strokeColor=#FF6392;html=1;labelBorderColor=none;align=center;fontColor=#0000FF;fontStyle=1" parent="Tuy6HMVft_M20eq7TQrm-1" vertex="1">
                    <mxGeometry x="880" y="451" width="120" height="50" as="geometry"/>
                </mxCell>
                <mxCell id="Tuy6HMVft_M20eq7TQrm-45" value="&lt;span&gt;CreditCard Database&lt;/span&gt;" style="shape=cylinder3;whiteSpace=wrap;boundedLbl=1;backgroundOutline=1;size=15;shadow=1;glass=0;labelBackgroundColor=none;fontSize=17;strokeWidth=4;fillColor=#FFE45E;strokeColor=#FF6392;html=1;labelBorderColor=none;align=center;fontColor=#0000FF;fontStyle=1" parent="Tuy6HMVft_M20eq7TQrm-1" vertex="1">
                    <mxGeometry x="887.5" y="510.5" width="105" height="80" as="geometry"/>
                </mxCell>
                <mxCell id="Tuy6HMVft_M20eq7TQrm-46" value="&lt;span&gt;Speakers&lt;/span&gt;" style="whiteSpace=wrap;shadow=1;glass=0;fontSize=17;strokeWidth=4;labelBackgroundColor=none;fillColor=#FFE45E;strokeColor=#FF6392;html=1;labelBorderColor=none;align=center;fontColor=#0000FF;fontStyle=1" parent="Tuy6HMVft_M20eq7TQrm-1" vertex="1">
                    <mxGeometry x="880" y="110" width="120" height="50" as="geometry"/>
                </mxCell>
                <mxCell id="Tuy6HMVft_M20eq7TQrm-47" value="&lt;span&gt;Advertiser Database&lt;/span&gt;" style="shape=cylinder3;whiteSpace=wrap;boundedLbl=1;backgroundOutline=1;size=15;shadow=1;glass=0;labelBackgroundColor=none;fontSize=17;strokeWidth=4;fillColor=#FFE45E;strokeColor=#FF6392;html=1;labelBorderColor=none;align=center;fontColor=#0000FF;fontStyle=1" parent="Tuy6HMVft_M20eq7TQrm-1" vertex="1">
                    <mxGeometry x="887.5" y="170" width="105" height="85" as="geometry"/>
                </mxCell>
                <mxCell id="Tuy6HMVft_M20eq7TQrm-48" value="&lt;span&gt;Media Database&lt;/span&gt;" style="shape=cylinder3;whiteSpace=wrap;boundedLbl=1;backgroundOutline=1;size=15;shadow=1;glass=0;labelBackgroundColor=none;fontSize=17;strokeWidth=4;fillColor=#FFE45E;strokeColor=#FF6392;html=1;labelBorderColor=none;align=center;fontColor=#0000FF;fontStyle=1" parent="Tuy6HMVft_M20eq7TQrm-1" vertex="1">
                    <mxGeometry x="887.5" y="265" width="105" height="85" as="geometry"/>
                </mxCell>
                <mxCell id="Tuy6HMVft_M20eq7TQrm-49" value="&lt;span&gt;Event Database&lt;/span&gt;" style="shape=cylinder3;whiteSpace=wrap;boundedLbl=1;backgroundOutline=1;size=15;shadow=1;glass=0;labelBackgroundColor=none;fontSize=17;strokeWidth=4;fillColor=#FFE45E;strokeColor=#FF6392;html=1;labelBorderColor=none;align=center;fontColor=#0000FF;fontStyle=1" parent="Tuy6HMVft_M20eq7TQrm-1" vertex="1">
                    <mxGeometry x="887.5" y="360" width="105" height="80" as="geometry"/>
                </mxCell>
                <mxCell id="Tuy6HMVft_M20eq7TQrm-50" value="&lt;span&gt;Card Reader&lt;/span&gt;" style="whiteSpace=wrap;shadow=1;glass=0;fontSize=17;strokeWidth=4;labelBackgroundColor=none;fillColor=#FFE45E;strokeColor=#FF6392;html=1;labelBorderColor=none;align=center;fontColor=#0000FF;fontStyle=1" parent="Tuy6HMVft_M20eq7TQrm-1" vertex="1">
                    <mxGeometry x="880" y="451" width="120" height="50" as="geometry"/>
                </mxCell>
                <mxCell id="Tuy6HMVft_M20eq7TQrm-51" value="&lt;span&gt;CreditCard Database&lt;/span&gt;" style="shape=cylinder3;whiteSpace=wrap;boundedLbl=1;backgroundOutline=1;size=15;shadow=1;glass=0;labelBackgroundColor=none;fontSize=17;strokeWidth=4;fillColor=#FFE45E;strokeColor=#FF6392;html=1;labelBorderColor=none;align=center;fontColor=#0000FF;fontStyle=1" parent="Tuy6HMVft_M20eq7TQrm-1" vertex="1">
                    <mxGeometry x="887.5" y="510.5" width="105" height="80" as="geometry"/>
                </mxCell>
                <mxCell id="Tuy6HMVft_M20eq7TQrm-52" value="&lt;span&gt;Bluetooth&lt;/span&gt;" style="whiteSpace=wrap;shadow=1;glass=0;fontSize=17;strokeWidth=4;labelBackgroundColor=none;fillColor=#FFE45E;strokeColor=#FF6392;html=1;labelBorderColor=none;align=center;fontColor=#0000FF;fontStyle=1" parent="Tuy6HMVft_M20eq7TQrm-1" vertex="1">
                    <mxGeometry x="880" y="600.5" width="120" height="50" as="geometry"/>
                </mxCell>
                <mxCell id="Tuy6HMVft_M20eq7TQrm-53" value="Disconnects from System" style="ellipse;whiteSpace=wrap;fillColor=#FFE45E;shadow=1;strokeColor=#FF6392;strokeWidth=4;html=1;labelBorderColor=none;labelBackgroundColor=none;align=center;fontSize=17;fontColor=#0000FF;fontStyle=1" parent="Tuy6HMVft_M20eq7TQrm-1" vertex="1">
                    <mxGeometry x="340" y="645" width="170" height="72.5" as="geometry"/>
                </mxCell>
                <mxCell id="Tuy6HMVft_M20eq7TQrm-54" value="Run Systems Test" style="ellipse;whiteSpace=wrap;fillColor=#FFE45E;shadow=1;strokeColor=#FF6392;strokeWidth=4;html=1;labelBorderColor=none;labelBackgroundColor=none;align=center;fontSize=17;fontColor=#0000FF;fontStyle=1" parent="Tuy6HMVft_M20eq7TQrm-1" vertex="1">
                    <mxGeometry x="340" y="564.5" width="170" height="72.5" as="geometry"/>
                </mxCell>
                <mxCell id="Tuy6HMVft_M20eq7TQrm-55" value="Updates CreditCard Verification" style="ellipse;whiteSpace=wrap;fillColor=#FFE45E;shadow=1;strokeColor=#FF6392;strokeWidth=4;html=1;labelBorderColor=none;labelBackgroundColor=none;align=center;fontSize=17;fontColor=#0000FF;fontStyle=1" parent="Tuy6HMVft_M20eq7TQrm-1" vertex="1">
                    <mxGeometry x="340" y="483.5" width="170" height="72.5" as="geometry"/>
                </mxCell>
                <mxCell id="Tuy6HMVft_M20eq7TQrm-56" value="Updates Kiosk Fees" style="ellipse;whiteSpace=wrap;fillColor=#FFE45E;shadow=1;strokeColor=#FF6392;strokeWidth=4;html=1;labelBorderColor=none;labelBackgroundColor=none;align=center;fontSize=17;fontColor=#0000FF;fontStyle=1" parent="Tuy6HMVft_M20eq7TQrm-1" vertex="1">
                    <mxGeometry x="340" y="404" width="170" height="72.5" as="geometry"/>
                </mxCell>
                <mxCell id="Tuy6HMVft_M20eq7TQrm-57" value="Updates Advertisers" style="ellipse;whiteSpace=wrap;fillColor=#FFE45E;shadow=1;strokeColor=#FF6392;strokeWidth=4;html=1;labelBorderColor=none;labelBackgroundColor=none;align=center;fontSize=17;fontColor=#0000FF;fontStyle=1" parent="Tuy6HMVft_M20eq7TQrm-1" vertex="1">
                    <mxGeometry x="340" y="323.5" width="170" height="72.5" as="geometry"/>
                </mxCell>
                <mxCell id="Tuy6HMVft_M20eq7TQrm-58" value="&lt;span&gt;Updates Events &amp;amp; Media&lt;/span&gt;" style="ellipse;whiteSpace=wrap;fillColor=#FFE45E;shadow=1;strokeColor=#FF6392;strokeWidth=4;html=1;labelBorderColor=none;labelBackgroundColor=none;align=center;fontSize=17;fontColor=#0000FF;fontStyle=1" parent="Tuy6HMVft_M20eq7TQrm-1" vertex="1">
                    <mxGeometry x="340" y="243.5" width="170" height="72.5" as="geometry"/>
                </mxCell>
                <mxCell id="Tuy6HMVft_M20eq7TQrm-59" value="&lt;span&gt;Updates Device Firmware&lt;/span&gt;" style="ellipse;whiteSpace=wrap;fillColor=#FFE45E;shadow=1;strokeColor=#FF6392;strokeWidth=4;html=1;labelBorderColor=none;labelBackgroundColor=none;align=center;fontSize=17;fontColor=#0000FF;fontStyle=1" parent="Tuy6HMVft_M20eq7TQrm-1" vertex="1">
                    <mxGeometry x="340" y="163" width="170" height="72.5" as="geometry"/>
                </mxCell>
                <mxCell id="Tuy6HMVft_M20eq7TQrm-60" value="&lt;span&gt;Remote Connects to Kiosk&lt;/span&gt;" style="ellipse;whiteSpace=wrap;fillColor=#FFE45E;shadow=1;strokeColor=#FF6392;strokeWidth=4;html=1;labelBorderColor=none;labelBackgroundColor=none;align=center;fontSize=17;fontColor=#0000FF;fontStyle=1" parent="Tuy6HMVft_M20eq7TQrm-1" vertex="1">
                    <mxGeometry x="340" y="81.5" width="170" height="72.5" as="geometry"/>
                </mxCell>
                <mxCell id="Tuy6HMVft_M20eq7TQrm-61" value="&lt;span style=&quot;font-size: 30px ; font-weight: 700&quot;&gt;Admin&lt;/span&gt;" style="shape=actor;whiteSpace=wrap;shadow=1;glass=1;strokeWidth=4;fillColor=#FFE45E;strokeColor=#FF6392;labelBackgroundColor=none;labelBorderColor=none;html=1;align=center;fontColor=#0000FF;" parent="Tuy6HMVft_M20eq7TQrm-1" vertex="1">
                    <mxGeometry x="80" y="517.5" width="130" height="200" as="geometry"/>
                </mxCell>
                <mxCell id="Tuy6HMVft_M20eq7TQrm-62" value="&lt;span&gt;Internet Connection&lt;/span&gt;" style="ellipse;shape=cloud;whiteSpace=wrap;shadow=1;glass=0;labelBackgroundColor=none;fontSize=17;strokeColor=#FF6392;strokeWidth=4;fillColor=#FFE45E;html=1;labelBorderColor=none;align=center;fontColor=#0000FF;fontStyle=1" parent="Tuy6HMVft_M20eq7TQrm-1" vertex="1">
                    <mxGeometry x="40" y="274" width="210" height="185" as="geometry"/>
                </mxCell>
            </root>
        </mxGraphModel>
    </diagram>
</mxfile>